<svg xmlns="http://www.w3.org/2000/svg" width="34.256" height="22.088" viewBox="0 0 34.256 22.088">
  <g id="Group_2775" data-name="Group 2775" transform="translate(0 -79.451)">
    <path id="Path_2170" data-name="Path 2170" d="M34.256,99.645a1.962,1.962,0,0,1-2.025,1.893H2.025A1.962,1.962,0,0,1,0,99.645v-18.3a1.962,1.962,0,0,1,2.025-1.893H32.231a1.962,1.962,0,0,1,2.025,1.893Z" fill="#306fc5"/>
    <path id="Path_2171" data-name="Path 2171" d="M1.44,99.645v-18.3a1.963,1.963,0,0,1,2.025-1.893H2.025A1.962,1.962,0,0,0,0,81.344v18.3a1.962,1.962,0,0,0,2.025,1.893h1.44A1.963,1.963,0,0,1,1.44,99.645Z" fill="#202121" opacity="0.15"/>
    <path id="Path_2172" data-name="Path 2172" d="M74.59,202.581h1.024l-.512-1.3Zm5.443,4.373v.6h1.721v.651H80.033v.7h1.907l.884-.977-.837-.977Zm13.445-5.676-.558,1.3h1.07Zm-8.467,8v-2.652l-1.21,1.3Zm2.28-1.907a.47.47,0,0,0-.512-.419H85.8v.837h1.024c.279,0,.465-.139.465-.418Zm3.256.326a.363.363,0,0,0,.14-.326.259.259,0,0,0-.14-.326.905.905,0,0,0-.372-.047h-.931v.744h.931A.9.9,0,0,0,90.547,207.7Z" transform="translate(-69.599 -114.478)" fill="#fff"/>
    <path id="Path_2173" data-name="Path 2173" d="M61.936,183.2v.558l-.279-.558H59.471v.558l-.279-.558H56.214a2.832,2.832,0,0,0-1.3.279V183.2H52.818v.279a1.342,1.342,0,0,0-.884-.279h-7.49l-.512,1.163L43.42,183.2H41.048v.558l-.233-.558H38.768l-.931,2.186-1.07,2.373-.02.047H39.17l.017-.047.279-.7h.6l.279.744h2.7v-.558l.233.558H44.63l.233-.558v.558h6.467v-1.21h.093c.093,0,.093,0,.093.14v1.023h3.35v-.279a2.783,2.783,0,0,0,1.256.279h1.4l.279-.744h.651l.279.744h2.7v-.7l.419.7H64.03V183.2Zm-15.771,3.908h-.744v-2.559l-.047.107h0l-1.082,2.453h-.686l-1.116-2.559v2.559H40.908l-.326-.7H39l-.326.7h-.818l1.376-3.257H40.4l1.3,3.117v-3.117h1.233l.022.047h0l.587,1.277.422.957.015-.048.93-2.233h1.256v3.257Zm3.21-2.559H47.561v.6h1.768v.651H47.561v.652h1.814v.7H46.77v-3.3h2.605Zm3.318,1.2,0,0a.533.533,0,0,1,.045.055.9.9,0,0,1,.165.545v.013s0,0,0,.007v0c0,.026,0,.052,0,.08v.651h-.7v-.372a1.107,1.107,0,0,0-.14-.651.424.424,0,0,0-.137-.094.929.929,0,0,0-.421-.046h-.838v1.163h-.791v-3.257h1.768a1.784,1.784,0,0,1,.93.14.786.786,0,0,1,.371.723.924.924,0,0,1-.557.858.623.623,0,0,1,.294.176Zm1.567,1.359h-.791v-3.257h.791Zm9.072,0H62.309L60.82,184.64v2.047l0,0v.426h-.786v0h-.791l-.279-.7H57.33l-.279.744h-.884a1.4,1.4,0,0,1-1.535-1.628,1.907,1.907,0,0,1,.419-1.3,1.465,1.465,0,0,1,1.163-.372h.745v.7h-.745a.858.858,0,0,0-.6.186,1.093,1.093,0,0,0-.232.744,1.013,1.013,0,0,0,.232.791.742.742,0,0,0,.558.186h.326l1.07-2.559h1.163l1.3,3.117V183.9h1.163l1.349,2.28V183.9h.791v3.21h0Z" transform="translate(-34.289 -97.367)" fill="#fff"/>
    <path id="Path_2174" data-name="Path 2174" d="M142.491,204.023a.251.251,0,0,0,.036-.05.5.5,0,0,0,.064-.351.261.261,0,0,0-.007-.042s0-.007,0-.011h0a.261.261,0,0,0-.141-.158.911.911,0,0,0-.372-.046h-.931v.744h.931a.906.906,0,0,0,.372-.047.176.176,0,0,0,.038-.028h0Zm14.047,6.553a1.782,1.782,0,0,0-.232-.884V207.6h0v-.14h-2.24a1.324,1.324,0,0,0-.642.279v-.279h-2.14a1.478,1.478,0,0,0-.931.279v-.279h-3.815v.279a1.8,1.8,0,0,0-1.024-.279H143v.279a1.767,1.767,0,0,0-1.07-.279h-2.791l-.651.7-.6-.7h-4.187v4.7h4.094l.673-.673.583.673h2.605v-1.07h.233a2.826,2.826,0,0,0,1.07-.14V212.2h2.094v-1.21h.093c.14,0,.14,0,.14.14v1.07h6.327a1.824,1.824,0,0,0,1.07-.279v.279h2a2.09,2.09,0,0,0,1.117-.233,1.562,1.562,0,0,0,.738-1.254c0-.016,0-.032.006-.048l0,0C156.536,210.635,156.537,210.606,156.537,210.575Zm-14.654-.279h-.931v1.209h-1.529l-.89-1.024,0,0-.043-.05-1.023,1.07h-2.977v-3.257h3.024l.826.9.174.189.024-.024.977-1.07h2.466a1.207,1.207,0,0,1,1.217.6,1.314,1.314,0,0,1,.039.325C143.232,210.11,142.581,210.3,141.883,210.3Zm4.652-.047a1.056,1.056,0,0,1,.139.6v.651h-.791v-.419a1.038,1.038,0,0,0-.14-.652c-.093-.139-.279-.139-.558-.139h-.837v1.209h-.791v-3.3h1.768a1.876,1.876,0,0,1,.931.139.823.823,0,0,1,.418.745.926.926,0,0,1-.558.884A.793.793,0,0,1,146.535,210.249Zm3.21-1.349h-1.815v.6H149.7v.651h-1.768v.651h1.815v.7H147.14v-3.3h2.605Zm1.954,2.605H150.21v-.7H151.7a.393.393,0,0,0,.326-.093.338.338,0,0,0,0-.465.4.4,0,0,0-.279-.093c-.744-.047-1.628,0-1.628-1.023,0-.465.279-.977,1.117-.977h1.535v.791h-1.442a.69.69,0,0,0-.326.047c-.093.047-.093.14-.093.233,0,.14.093.186.186.232a.59.59,0,0,0,.279.047h.419a1.184,1.184,0,0,1,.884.279.963.963,0,0,1,.233.7c0,.7-.419,1.024-1.21,1.024Zm4-.326a1.355,1.355,0,0,1-.977.326h-1.488v-.7h1.488a.392.392,0,0,0,.326-.093.337.337,0,0,0,0-.465.393.393,0,0,0-.279-.093c-.744-.047-1.628,0-1.628-1.023a.951.951,0,0,1,.877-.96,1.735,1.735,0,0,1,.24-.017h1.535v.791h-1.442a.688.688,0,0,0-.326.047.355.355,0,0,0-.093.233c0,.14.047.186.186.232a.588.588,0,0,0,.279.047h.419a1.452,1.452,0,0,1,.5.075,1,1,0,0,1,.651.736,1.046,1.046,0,0,1,.014.167A.946.946,0,0,1,155.7,211.18Z" transform="translate(-124.75 -116.484)" fill="#fff"/>
  </g>
</svg>
