<svg xmlns="http://www.w3.org/2000/svg" width="25.426" height="18.793" viewBox="0 0 25.426 18.793">
  <g id="Group_2776" data-name="Group 2776" transform="translate(-1.172 -3.565)">
    <path id="Path_2175" data-name="Path 2175" d="M17.021,4.461A6.081,6.081,0,0,0,15.827,13.3H4.488A1.105,1.105,0,0,0,3.383,14.41v1.106a1.105,1.105,0,0,0,1.105,1.105H22.176a1.105,1.105,0,0,0,1.106-1.105v-.663a6.108,6.108,0,0,0,2.211-1.92v7.005a2.211,2.211,0,0,1-2.211,2.211H3.383a2.211,2.211,0,0,1-2.211-2.211V6.672A2.211,2.211,0,0,1,3.383,4.461Zm7.414.324a6.125,6.125,0,0,1,.733.733A2.223,2.223,0,0,0,24.435,4.785Z" transform="translate(0 0.21)" fill="#727f96" fill-rule="evenodd" opacity="0.2"/>
    <path id="Path_2176" data-name="Path 2176" d="M15.1,6.251a6.055,6.055,0,0,0-.663,2.764q0,.279.025.553H1.172V6.251Z" transform="translate(0 0.631)" fill="#727f96" fill-rule="evenodd" opacity="0.4"/>
    <path id="Path_2177" data-name="Path 2177" d="M17.994,15.726a6.08,6.08,0,1,1,4.3-1.781A6.08,6.08,0,0,1,17.994,15.726Zm-2.415-8.6h-.686l-1.676.851v.869l1.329-.695v4.013h1.042V7.127Zm2,.695c.5,0,.842.278.842.677,0,.434-.408.738-1,.738H17.16v.738h.313c.625,0,1.051.313,1.051.764,0,.434-.417.73-1.008.73a2.565,2.565,0,0,1-1.32-.408v.869a3.683,3.683,0,0,0,1.45.321c1.138,0,1.92-.582,1.92-1.424a1.3,1.3,0,0,0-.973-1.259,1.222,1.222,0,0,0,.86-1.155c0-.816-.721-1.372-1.763-1.372a3.474,3.474,0,0,0-1.364.3v.851a2.578,2.578,0,0,1,1.251-.365Zm3.752,1.894c.634,0,1.077.373,1.077.86,0,.512-.443.869-1.077.869a2.266,2.266,0,0,1-1.19-.373v.895a3.135,3.135,0,0,0,1.286.287,2.483,2.483,0,0,0,.634-.087,4.768,4.768,0,0,0,.712-2.5L22.754,9.3a2,2,0,0,0-1.068-.278,3.315,3.315,0,0,0-.5.035V7.926h1.251a4.878,4.878,0,0,0-.4-.8H20.287V9.863a4.311,4.311,0,0,1,1.042-.148Z" transform="translate(2.524)" fill="#727f96" fill-rule="evenodd"/>
  </g>
</svg>
