<?xml version="1.0" encoding="UTF-8"?>
<svg id="Layer_1" data-name="Layer 1" xmlns="http://www.w3.org/2000/svg" viewBox="0 0 607.64 133.66">
  <defs>
    <style>
      .cls-1 {
        fill: #0b6eb2;
      }

      .cls-2 {
        fill: #009248;
      }

      .cls-3 {
        fill-rule: evenodd;
      }

      .cls-3, .cls-4 {
        fill: #005eb8;
      }

      .cls-5 {
        fill: #0059a8;
      }

      .cls-6 {
        fill: #005daa;
      }
    </style>
  </defs>
  <path class="cls-3" d="M121.44,27.52c.55-3.89-.26-7.08-2.43-9.45-2.02-2.24-2.86-3.02-5.24-3.55-.72-.93-2.01-1.67-3.55-1.88-2.54-.36-4.8.78-5.05,2.53s1.6,3.5,4.14,3.86c1.58.22,3.08-.14,4.03-.89,1.72.42,1.69.9,2.99,2.36,1.43,1.56,1.94,3.69,1.53,6.52-.86,6.01-6.24,13.59-10.84,20.77-.69,1.09-3.94,5.77-4.67,6.69-.78,0-1.57.31-2.15.92-4.34,4.73-2.03,4.75-7.56,3.96-5.26-.94-2.8-.27-5.56-5.82-.38-.75-1.05-1.27-1.81-1.47-.44-1.1-1.56-4.36-1.91-5.6-2.43-8.18-6.19-19.08-5.33-25.09.4-2.83,1.48-4.74,3.27-5.84,1.68-1.06,1.76-1.53,3.56-1.45.69.99,2.02,1.75,3.62,1.98,2.54.36,4.8-.76,5.05-2.53s-1.61-3.48-4.14-3.84c-1.54-.22-3.01.1-3.96.82-2.42-.17-3.44.36-6,1.93-2.74,1.69-4.42,4.51-4.97,8.42-.91,6.41,3.42,22.66,7.53,32.68-.37.78-.39,1.69,0,2.51,3.05,6.14,1.38,6.36,7.04,8.2-.12,2.48-2.67,4.51-4.53,6.07l4.38,2.45c1.54-1.99,3.94-4.81,5.08-7.81,6.02-.23,5.83-.75,10.42-5.72.61-.68.84-1.58.7-2.4,6.75-8.48,15.44-22.88,16.35-29.31Z"/>
  <path class="cls-4" d="M76.28,133.66c-9.18,0-17.29-1.8-23.72-5.49-8.56-4.91-13.27-12.99-13.27-22.74,0-19.5,19.16-25.62,33.15-30.09,5.43-1.73,10.14-3.2,12.05-5.03l4.65,2.1c-2.92,3.56-7.8,5.14-15.18,7.7-13.12,4.54-29.67,9.48-29.67,25.32,0,8,3.72,14.36,10.76,18.4,17.05,9.79,47.75,4.64,78.19-13.13l2.52,4.32c-20.91,12.2-42.12,18.63-59.49,18.63Z"/>
  <g>
    <polygon class="cls-6" points="128.38 107.05 132.86 113.71 145 105.53 128.38 107.05"/>
    <polygon class="cls-1" points="145 105.53 132.86 113.71 137.35 120.36 145 105.53"/>
    <polygon class="cls-4" points="136.19 111.46 128.38 107.05 132.86 113.71 137.35 120.36 136.19 111.46"/>
  </g>
  <path class="cls-5" d="M596.47,39.83c0-2.21-.28-4.27-.84-6.16-.56-1.89-1.5-3.45-2.81-4.68-1.33-1.23-3.09-1.85-5.31-1.85s-3.95.62-5.39,1.86c-1.44,1.25-2.49,2.86-3.15,4.8-.66,1.96-.98,3.99-.98,6.11,0,3.45.74,6.43,2.23,8.93,1.48,2.51,3.84,3.75,7.06,3.75,2.1,0,3.82-.63,5.2-1.9,1.36-1.27,2.37-2.91,3.02-4.89.66-1.99.98-3.98.98-5.98ZM577.98,77.56h-10.84V31.08c0-4.76-.14-8.81-.41-12.17h10.38l.17,6.47c3.19-4.82,7.73-7.23,13.6-7.23,2.84,0,5.32.57,7.44,1.72,2.13,1.15,3.87,2.72,5.25,4.71,1.37,1.97,2.41,4.24,3.07,6.76.67,2.53,1.01,5.14,1.01,7.83,0,3.96-.57,7.6-1.74,10.92-1.16,3.31-3.04,5.98-5.64,8.02-2.59,2.03-5.88,3.05-9.87,3.05-2.59,0-5.01-.56-7.28-1.68-2.27-1.12-4.05-2.73-5.34-4.85.14,1.4.21,3.52.21,6.36v16.55ZM546.99,39.83c0-2.24-.36-4.45-1.09-6.61-.71-2.16-1.88-3.93-3.46-5.34-1.58-1.39-3.54-2.09-5.87-2.09s-4.12.69-5.73,2.04c-1.6,1.37-2.77,3.12-3.54,5.24-.77,2.11-1.15,4.26-1.15,6.41,0,2.33.36,4.57,1.09,6.74.71,2.16,1.88,3.92,3.46,5.31,1.58,1.39,3.6,2.07,6.04,2.07,1.72,0,3.23-.42,4.55-1.25,1.32-.84,2.38-1.9,3.19-3.21.83-1.3,1.44-2.76,1.88-4.38.42-1.62.63-3.28.63-4.94ZM558.16,40.05c0,3.19-.52,6.13-1.55,8.79-1.05,2.67-2.52,4.94-4.43,6.82-1.89,1.86-4.17,3.32-6.83,4.37-2.65,1.04-5.6,1.55-8.87,1.55-4.3,0-8.07-.92-11.33-2.79-3.26-1.86-5.77-4.5-7.53-7.88-1.76-3.39-2.65-7.2-2.65-11.44s.91-8,2.72-11.29c1.81-3.28,4.34-5.83,7.6-7.65,3.28-1.82,7.03-2.73,11.27-2.73,3.29,0,6.26.55,8.93,1.64,2.66,1.09,4.94,2.65,6.83,4.66,1.89,2,3.33,4.37,4.33,7.07.99,2.7,1.5,5.66,1.5,8.86ZM506.82,60.5h-10.76v-20.19c0-3.99-.43-7.18-1.29-9.58-.87-2.39-2.9-3.58-6.09-3.58-3.45,0-5.85,1.41-7.25,4.24-1.39,2.83-2.09,6.15-2.09,9.96v19.16h-10.76V0h10.76v24.8c1.55-2.24,3.43-3.92,5.62-5.01,2.18-1.09,4.69-1.64,7.51-1.64s5.34.48,7.24,1.41c1.9.95,3.36,2.23,4.38,3.84,1.02,1.61,1.74,3.5,2.14,5.64.39,2.14.59,4.68.59,7.58v23.88ZM423.61,59.21l1.04-10.06c4.43,2.41,8.65,3.61,12.67,3.61,2.59,0,4.87-.64,6.83-1.93,1.95-1.27,2.93-3.17,2.93-5.66s-.83-4.3-2.48-5.36c-1.65-1.06-4.66-2.53-9-4.41-4.36-1.88-7.62-3.96-9.79-6.27-2.17-2.31-3.26-5.62-3.26-9.9,0-3.59.91-6.57,2.73-8.96,1.82-2.39,4.23-4.16,7.21-5.29,3-1.13,6.26-1.69,9.79-1.69,4.73,0,9.19.74,13.37,2.21l-.94,9.23c-4.08-1.86-7.94-2.79-11.6-2.79-2.41,0-4.51.55-6.29,1.62-1.79,1.08-2.69,2.77-2.69,5.1s.67,3.74,2,4.55c1.34.83,4.38,2.28,9.12,4.37,4.75,2.1,8.23,4.33,10.48,6.68,2.24,2.37,3.36,5.69,3.36,9.96,0,3.02-.56,5.66-1.68,7.87-1.12,2.21-2.67,4.03-4.66,5.48-1.97,1.43-4.24,2.49-6.81,3.18-2.55.69-5.27,1.02-8.14,1.02-4.54,0-9.27-.85-14.2-2.55ZM379.45,60.5h-10.76v-29.09c-.14-6.92-.25-11.08-.32-12.51h9.76l.25,10.48c.92-3.28,2.34-5.9,4.24-7.86,1.89-1.97,4.37-2.95,7.44-2.95.92,0,1.97.14,3.15.41v10.08c-1.41-.38-2.68-.57-3.77-.57-2.55,0-4.57.67-6.06,2.02-1.5,1.33-2.53,3.05-3.09,5.14-.56,2.1-.84,4.4-.84,6.88v17.98ZM348.63,39.83c0-2.24-.36-4.45-1.09-6.61-.71-2.16-1.88-3.93-3.46-5.34-1.58-1.39-3.54-2.09-5.87-2.09s-4.12.69-5.73,2.04c-1.6,1.37-2.77,3.12-3.54,5.24-.77,2.11-1.15,4.26-1.15,6.41,0,2.33.36,4.57,1.09,6.74.71,2.16,1.88,3.92,3.46,5.31,1.58,1.39,3.6,2.07,6.04,2.07,1.72,0,3.23-.42,4.55-1.25,1.32-.84,2.38-1.9,3.19-3.21.83-1.3,1.44-2.76,1.88-4.38.42-1.62.63-3.28.63-4.94ZM359.8,40.05c0,3.19-.52,6.13-1.55,8.79-1.05,2.67-2.52,4.94-4.43,6.82-1.89,1.86-4.17,3.32-6.83,4.37-2.65,1.04-5.6,1.55-8.86,1.55-4.3,0-8.07-.92-11.33-2.79-3.26-1.86-5.77-4.5-7.53-7.88-1.76-3.39-2.65-7.2-2.65-11.44s.91-8,2.72-11.29c1.81-3.28,4.34-5.83,7.6-7.65,3.28-1.82,7.03-2.73,11.27-2.73,3.29,0,6.26.55,8.93,1.64,2.66,1.09,4.94,2.65,6.83,4.66,1.89,2,3.33,4.37,4.33,7.07.99,2.7,1.5,5.66,1.5,8.86ZM311.28,51.61l.36,8.4c-2.73.55-5.15.83-7.25.83-3.53,0-6.33-.64-8.37-1.95-2.06-1.3-3.49-3.15-4.31-5.55-.83-2.39-1.23-5.32-1.23-8.79v-17.41h-7.84v-7.98h8.01v-8.46l10.76-3.54v12h9.48v7.98h-9.48v15.15c0,3.22.35,5.69,1.05,7.37.7,1.68,2.41,2.52,5.14,2.52,1.02,0,2.26-.2,3.7-.57ZM279.94,50.16l.6,9.07c-3.6,1.06-6.83,1.6-9.68,1.6-3.16,0-6.08-.49-8.74-1.46-2.65-.97-4.93-2.38-6.83-4.24-1.89-1.86-3.35-4.13-4.34-6.79-.99-2.68-1.5-5.62-1.5-8.85,0-4.1.88-7.73,2.65-10.91,1.76-3.18,4.26-5.63,7.46-7.38,3.22-1.75,6.85-2.63,10.9-2.63,3.01,0,6.05.45,9.15,1.36l-.81,8.65c-2.46-.97-4.68-1.44-6.65-1.44-2.24,0-4.24.56-6.02,1.67-1.78,1.11-3.14,2.58-4.08,4.43-.94,1.85-1.41,3.91-1.41,6.18,0,3.75,1.09,6.76,3.28,9.03,2.18,2.27,5.13,3.4,8.81,3.4,2.35,0,4.76-.56,7.23-1.68ZM232.07,39.83c0-2.24-.36-4.45-1.09-6.61-.71-2.16-1.88-3.93-3.46-5.34-1.58-1.39-3.54-2.09-5.87-2.09s-4.12.69-5.73,2.04c-1.6,1.37-2.77,3.12-3.54,5.24-.77,2.11-1.15,4.26-1.15,6.41,0,2.33.36,4.57,1.09,6.74.71,2.16,1.88,3.92,3.46,5.31,1.58,1.39,3.6,2.07,6.04,2.07,1.72,0,3.23-.42,4.55-1.25,1.32-.84,2.38-1.9,3.19-3.21.83-1.3,1.44-2.76,1.88-4.38.42-1.62.63-3.28.63-4.94ZM243.24,40.05c0,3.19-.52,6.13-1.55,8.79-1.05,2.67-2.52,4.94-4.43,6.82-1.89,1.86-4.17,3.32-6.83,4.37-2.65,1.04-5.6,1.55-8.87,1.55-4.3,0-8.07-.92-11.33-2.79-3.26-1.86-5.77-4.5-7.53-7.88-1.76-3.39-2.65-7.2-2.65-11.44s.91-8,2.72-11.29c1.81-3.28,4.34-5.83,7.6-7.65,3.28-1.82,7.03-2.73,11.27-2.73,3.29,0,6.26.55,8.93,1.64,2.66,1.09,4.94,2.65,6.83,4.66,1.89,2,3.33,4.37,4.33,7.07.99,2.7,1.5,5.66,1.5,8.86ZM156.54,51.84c.63,0,1.15.01,1.55.03.42.01.85.03,1.32.06,3.3,0,6.27-.41,8.91-1.2,2.62-.81,4.87-2.02,6.75-3.64,1.86-1.62,3.31-3.68,4.33-6.15,1.01-2.46,1.51-5.38,1.51-8.7s-.73-6.47-2.17-9.42c-1.46-2.94-3.53-5.2-6.23-6.75-1.13-.69-2.31-1.2-3.56-1.58-1.25-.36-2.55-.63-3.94-.8-1.39-.15-2.91-.27-4.59-.32-1.68-.06-2.98-.08-3.88-.08v38.57ZM145.2,60.5V4.54h12.76c3.47,0,6.58.11,9.33.32,2.73.22,5.46.73,8.21,1.53,2.73.78,5.21,1.96,7.42,3.52,1.86,1.26,3.45,2.74,4.76,4.47,1.32,1.72,2.35,3.52,3.1,5.39.76,1.86,1.32,3.92,1.68,6.15.38,2.23.56,4.47.56,6.74,0,4.69-.81,9.02-2.44,12.98-1.64,3.96-4.22,7.21-7.74,9.75-1.86,1.37-3.96,2.44-6.32,3.21-2.35.76-4.78,1.27-7.27,1.53-2.49.27-5.1.39-7.83.39h-16.22ZM63.52,60.5h-11.34V27.39c.17-5.04.41-10.08.74-15.14h-.34c-.55,2.21-1.11,4.16-1.68,5.83l-14.27,42.42h-10.42L14.12,25.46c-1.5-4.38-2.79-8.78-3.85-13.21h-.34c.55,5.41.83,10.32.83,14.72v33.53H0V4.54h17.9l10.17,29.37c1.58,4.72,2.79,9.3,3.61,13.75.49-2.35.95-4.38,1.41-6.12.45-1.74.95-3.47,1.53-5.22l10.76-31.78h18.15v55.96Z"/>
  <path class="cls-2" d="M561.19,96.37c.16-.69.21-1.33.14-1.91-.07-.58-.3-1.05-.68-1.4-.38-.36-.92-.54-1.62-.54s-1.39.18-2,.53c-.6.35-1.12.82-1.56,1.4-.44.58-.78,1.22-1.02,1.92h6.74ZM562.54,101.47l-.86,3.46c-1.83.71-3.69,1.07-5.6,1.07-1.27,0-2.35-.18-3.24-.54-.9-.36-1.6-.9-2.11-1.6-.51-.7-.82-1.56-.92-2.56-.1-1,.03-2.14.37-3.43.32-1.18.77-2.26,1.38-3.25.6-.99,1.33-1.85,2.16-2.58.84-.73,1.77-1.3,2.82-1.7,1.05-.41,2.17-.61,3.36-.61s2.13.21,2.9.62c.77.42,1.34.99,1.69,1.73.36.73.55,1.58.56,2.54.02.96-.13,2.01-.44,3.16-.05.2-.1.36-.14.46-.04.1-.08.23-.13.38-.05.16-.12.33-.19.54h-10.4c-.22,1.22,0,2.17.66,2.85.67.68,1.63,1.02,2.89,1.02,1.43,0,3.16-.52,5.22-1.56ZM536.12,105.59h-4l2.9-10.81c.64-2.57,1.01-4.12,1.13-4.65h3.63l-.95,3.89c.67-1.22,1.46-2.19,2.36-2.92.9-.73,1.92-1.1,3.06-1.1.34,0,.72.05,1.13.15l-1,3.75c-.49-.14-.94-.21-1.34-.21-.95,0-1.76.25-2.45.75-.69.49-1.25,1.14-1.66,1.91-.42.78-.75,1.63-1,2.56l-.08.31-1.71,6.38ZM520.93,98.56c-.1-.02-.25-.03-.47-.03h-.49c-.87,0-1.69.05-2.44.15-.75.09-1.45.34-2.1.73-.65.39-1.08.96-1.28,1.71-.16.61-.05,1.1.33,1.46.39.36.9.54,1.54.54,1.21,0,2.25-.45,3.11-1.34.86-.9,1.46-1.97,1.79-3.22ZM522.79,105.59h-3.57l.56-2.32c-.7.83-1.54,1.46-2.51,1.9-.98.44-1.97.67-2.98.67s-1.9-.18-2.61-.54c-.72-.35-1.21-.9-1.48-1.62-.27-.72-.27-1.61,0-2.64.52-1.93,1.63-3.25,3.34-3.97,1.71-.71,3.65-1.07,5.82-1.07.31,0,.52,0,.61,0,.09,0,.29.02.6.03.31.02.63.04.95.06.31-1.15.26-2-.15-2.57-.41-.56-1.2-.84-2.37-.84-1.77,0-3.51.56-5.24,1.69l.81-3.48c1.84-.7,3.73-1.06,5.67-1.06.72,0,1.42.07,2.09.21.68.14,1.27.38,1.79.71.51.33.9.77,1.16,1.32.25.55.35,1.18.29,1.88-.06.7-.22,1.55-.48,2.52-.27,1-.54,2.01-.81,3.04-.27,1.02-.5,1.94-.71,2.78-.21.84-.47,1.93-.76,3.27ZM502.62,101.74l-.68,3.37c-1.44.4-2.7.59-3.76.59-1.18,0-2.21-.18-3.1-.54-.89-.36-1.6-.88-2.12-1.58-.52-.69-.83-1.54-.94-2.52-.1-.99,0-2.09.32-3.29.41-1.52,1.1-2.87,2.07-4.05.97-1.18,2.14-2.09,3.51-2.74,1.37-.65,2.81-.98,4.31-.98,1.12,0,2.2.17,3.26.5l-1.16,3.22c-.82-.36-1.59-.54-2.33-.54-.83,0-1.63.21-2.4.62-.77.41-1.42.96-1.96,1.64-.53.69-.91,1.45-1.14,2.3-.37,1.4-.27,2.51.32,3.36.59.84,1.57,1.27,2.94,1.27.87,0,1.83-.21,2.85-.62ZM481.89,105.59h-4l2.01-7.51c.4-1.48.55-2.67.48-3.56-.08-.89-.72-1.33-1.91-1.33-1.28,0-2.32.53-3.12,1.58-.8,1.05-1.39,2.29-1.77,3.7l-.21.78-1.7,6.35h-4l6.03-22.49h4l-2.47,9.22c.8-.83,1.67-1.46,2.59-1.86.92-.41,1.91-.61,2.95-.61s1.94.18,2.55.53c.61.35,1.03.83,1.25,1.43.22.6.3,1.3.23,2.1-.07.8-.25,1.74-.54,2.82l-2.38,8.88ZM460.38,102.28l-.7,3.12c-1.07.2-2,.31-2.78.31-1.31,0-2.29-.24-2.92-.72-.64-.48-.98-1.17-1.05-2.06-.07-.89.07-1.98.42-3.27l1.73-6.47h-2.91l.79-2.97h2.98l.84-3.14,4.35-1.32-1.2,4.46h3.52l-.79,2.97h-3.52l-1.51,5.63c-.32,1.2-.44,2.11-.34,2.74.09.62.64.94,1.66.94.38,0,.86-.07,1.43-.21ZM441.5,105.59h-4l6.03-22.49h4l-6.03,22.49ZM426.47,98.56c-.1-.02-.25-.03-.47-.03h-.49c-.87,0-1.69.05-2.44.15-.75.09-1.45.34-2.1.73-.65.39-1.08.96-1.28,1.71-.16.61-.05,1.1.33,1.46.39.36.9.54,1.54.54,1.21,0,2.25-.45,3.11-1.34.86-.9,1.46-1.97,1.79-3.22ZM428.33,105.59h-3.57l.56-2.32c-.7.83-1.54,1.46-2.51,1.9-.98.44-1.97.67-2.98.67s-1.9-.18-2.61-.54c-.72-.35-1.21-.9-1.48-1.62-.27-.72-.27-1.61,0-2.64.52-1.93,1.63-3.25,3.34-3.97,1.71-.71,3.65-1.07,5.82-1.07.31,0,.52,0,.61,0,.09,0,.29.02.6.03.31.02.63.04.95.06.31-1.15.26-2-.15-2.57-.41-.56-1.2-.84-2.37-.84-1.77,0-3.51.56-5.24,1.69l.81-3.48c1.84-.7,3.73-1.06,5.67-1.06.72,0,1.42.07,2.09.21.68.14,1.27.38,1.79.71.51.33.9.77,1.16,1.32.25.55.35,1.18.29,1.88-.06.7-.22,1.55-.48,2.52-.27,1-.54,2.01-.81,3.04-.27,1.02-.5,1.94-.71,2.78-.21.84-.47,1.93-.76,3.27ZM405.6,96.37c.16-.69.21-1.33.14-1.91-.07-.58-.3-1.05-.68-1.4-.38-.36-.92-.54-1.62-.54s-1.39.18-2,.53c-.6.35-1.12.82-1.56,1.4-.44.58-.78,1.22-1.02,1.92h6.74ZM406.95,101.47l-.86,3.46c-1.83.71-3.69,1.07-5.6,1.07-1.27,0-2.35-.18-3.24-.54-.9-.36-1.6-.9-2.11-1.6-.51-.7-.82-1.56-.92-2.56-.1-1,.03-2.14.37-3.43.32-1.18.77-2.26,1.38-3.25.6-.99,1.33-1.85,2.16-2.58.84-.73,1.77-1.3,2.82-1.7,1.05-.41,2.17-.61,3.36-.61s2.13.21,2.9.62c.77.42,1.34.99,1.69,1.73.36.73.55,1.58.56,2.54.02.96-.13,2.01-.44,3.16-.05.2-.1.36-.14.46-.04.1-.08.23-.13.38-.05.16-.12.33-.19.54h-10.4c-.22,1.22,0,2.17.66,2.85.67.68,1.63,1.02,2.89,1.02,1.43,0,3.16-.52,5.22-1.56ZM383.63,105.59h-4.22l2.4-8.96h-8.31l-2.4,8.96h-4.22l5.57-20.8h4.22l-2.26,8.43h8.31l2.26-8.43h4.22l-5.57,20.8ZM346.69,97.68c.14-.52.21-1.06.2-1.61,0-.56-.09-1.05-.27-1.47-.18-.42-.46-.77-.86-1.04-.4-.27-.88-.41-1.43-.41-1.14,0-2.11.45-2.91,1.34-.81.9-1.37,1.95-1.69,3.15-.32,1.2-.33,2.29-.01,3.24.32.96,1.04,1.44,2.15,1.44.79,0,1.51-.23,2.17-.69.65-.46,1.2-1.05,1.66-1.77.46-.72.79-1.45.98-2.2ZM348.86,90.15h3.82l-3.63,13.56c-.75,2.8-1.96,4.9-3.63,6.33-1.67,1.42-3.9,2.13-6.69,2.13-1.81,0-3.52-.36-5.12-1.1l1.25-3.46c.71.41,1.43.72,2.13.94.71.22,1.45.34,2.24.34.87,0,1.74-.19,2.6-.56.87-.38,1.57-.93,2.11-1.65.37-.49.65-1.03.87-1.62.21-.59.49-1.45.82-2.58-.76.95-1.67,1.7-2.74,2.26-1.07.56-2.13.84-3.21.84-1.4,0-2.46-.37-3.2-1.11-.74-.74-1.17-1.71-1.28-2.92-.11-1.2.01-2.48.38-3.84.37-1.39.94-2.69,1.7-3.88.76-1.19,1.72-2.15,2.86-2.89,1.14-.73,2.43-1.1,3.85-1.1,1.12,0,2.04.23,2.76.69.72.46,1.19,1.16,1.41,2.09l.72-2.47ZM318.73,90.12l-.57,2.47c1.72-1.81,3.7-2.72,5.93-2.72,2.07,0,3.3.61,3.69,1.84.4,1.22.29,2.95-.3,5.16l-2.33,8.71h-4l2.08-7.78c.37-1.37.49-2.49.37-3.34-.12-.85-.76-1.28-1.93-1.28-1.24,0-2.26.5-3.03,1.5-.77,1-1.35,2.19-1.71,3.56l-1.97,7.33h-4.03l2.64-9.83c.59-2.19,1.04-4.06,1.36-5.63h3.8ZM306.4,87.31h-4.12l1.01-3.78h4.12l-1.01,3.78ZM301.44,105.59h-4l4.14-15.46h4l-4.14,15.46ZM290.14,102.28l-.7,3.12c-1.07.2-2,.31-2.78.31-1.31,0-2.29-.24-2.92-.72-.64-.48-.98-1.17-1.05-2.06-.07-.89.07-1.98.42-3.27l1.73-6.47h-2.92l.79-2.97h2.98l.84-3.14,4.35-1.32-1.2,4.46h3.52l-.79,2.97h-3.52l-1.51,5.63c-.32,1.2-.44,2.11-.34,2.74.09.62.64.94,1.66.94.38,0,.86-.07,1.43-.21ZM273.34,101.74l-.68,3.37c-1.44.4-2.7.59-3.76.59-1.18,0-2.21-.18-3.1-.54-.89-.36-1.6-.88-2.12-1.58-.52-.69-.83-1.54-.94-2.52-.1-.99,0-2.09.32-3.29.41-1.52,1.1-2.87,2.07-4.05.97-1.18,2.14-2.09,3.51-2.74,1.37-.65,2.81-.98,4.31-.98,1.12,0,2.2.17,3.26.5l-1.16,3.22c-.82-.36-1.59-.54-2.33-.54-.83,0-1.63.21-2.4.62-.77.41-1.42.96-1.96,1.64-.53.69-.91,1.45-1.14,2.3-.37,1.4-.27,2.51.32,3.36.59.84,1.57,1.27,2.94,1.27.87,0,1.83-.21,2.85-.62ZM252.02,96.37c.16-.69.21-1.33.14-1.91-.07-.58-.3-1.05-.68-1.4-.38-.36-.92-.54-1.62-.54s-1.39.18-2,.53c-.6.35-1.12.82-1.56,1.4-.44.58-.78,1.22-1.02,1.92h6.74ZM253.37,101.47l-.86,3.46c-1.83.71-3.69,1.07-5.6,1.07-1.27,0-2.35-.18-3.24-.54-.9-.36-1.6-.9-2.11-1.6-.51-.7-.82-1.56-.92-2.56-.1-1,.03-2.14.37-3.43.32-1.18.77-2.26,1.38-3.25.6-.99,1.33-1.85,2.16-2.58.84-.73,1.77-1.3,2.82-1.7,1.05-.41,2.17-.61,3.36-.61s2.13.21,2.9.62c.77.42,1.34.99,1.69,1.73.36.73.55,1.58.56,2.54.02.96-.13,2.01-.44,3.16-.05.2-.1.36-.14.46-.04.1-.08.23-.13.38-.05.16-.12.33-.19.54h-10.4c-.22,1.22,0,2.17.66,2.85.67.68,1.63,1.02,2.89,1.02,1.43,0,3.16-.52,5.22-1.56ZM224.21,90.12l-.57,2.47c1.72-1.81,3.7-2.72,5.93-2.72,2.07,0,3.3.61,3.69,1.84.4,1.22.29,2.95-.3,5.16l-2.33,8.71h-4l2.08-7.78c.37-1.37.49-2.49.37-3.34-.12-.85-.76-1.28-1.93-1.28-1.24,0-2.26.5-3.03,1.5-.77,1-1.35,2.19-1.71,3.56l-1.97,7.33h-4.03l2.64-9.83c.59-2.19,1.04-4.06,1.36-5.63h3.79ZM200.64,90.12l-.57,2.47c1.72-1.81,3.7-2.72,5.93-2.72,2.07,0,3.3.61,3.69,1.84.4,1.22.29,2.95-.3,5.16l-2.33,8.71h-4l2.08-7.78c.37-1.37.49-2.49.37-3.34-.12-.85-.76-1.28-1.93-1.28-1.24,0-2.26.5-3.03,1.5-.77,1-1.35,2.19-1.71,3.56l-1.97,7.33h-4.03l2.64-9.83c.59-2.19,1.04-4.06,1.36-5.63h3.79ZM182.13,97.9c.22-.83.31-1.66.25-2.46-.05-.8-.31-1.46-.75-1.98-.45-.52-1.11-.78-1.97-.78s-1.6.25-2.33.76c-.73.51-1.34,1.16-1.84,1.95-.5.79-.85,1.58-1.07,2.38-.23.86-.32,1.7-.27,2.5.05.8.31,1.46.76,1.97.45.52,1.13.77,2.04.77.64,0,1.24-.16,1.82-.46.57-.31,1.07-.71,1.51-1.19.44-.48.81-1.03,1.13-1.63.32-.6.56-1.22.73-1.84ZM186.26,97.98c-.32,1.19-.8,2.28-1.45,3.27-.66.99-1.43,1.84-2.32,2.54-.89.69-1.88,1.23-2.98,1.62-1.09.39-2.24.58-3.45.58-1.6,0-2.91-.34-3.93-1.04-1.03-.69-1.7-1.67-2.01-2.93-.32-1.26-.27-2.68.16-4.25.42-1.58,1.13-2.97,2.13-4.2,1-1.22,2.19-2.17,3.59-2.84,1.4-.68,2.89-1.02,4.46-1.02,1.22,0,2.27.2,3.16.61.88.41,1.57.98,2.08,1.73.5.74.8,1.62.9,2.63.1,1,0,2.1-.33,3.3ZM162.04,101.37l-.84,3.68c-1.85.46-3.49.69-4.93.69-1.62,0-3.07-.21-4.34-.64-1.27-.43-2.31-1.08-3.13-1.96-.82-.88-1.33-1.97-1.54-3.27-.22-1.3-.1-2.81.36-4.5s1.12-3.22,1.98-4.56c.87-1.34,1.91-2.48,3.14-3.41,1.22-.93,2.57-1.63,4.06-2.1,1.49-.47,3.08-.7,4.76-.7,1.5,0,3.1.3,4.79.9l-1.29,3.57c-1.17-.75-2.56-1.13-4.16-1.13-1.36,0-2.64.29-3.84.87-1.19.59-2.21,1.41-3.04,2.45-.84,1.05-1.44,2.25-1.8,3.61-.38,1.41-.43,2.69-.15,3.81.29,1.13.88,2,1.79,2.62.92.62,2.09.93,3.53.93s2.92-.29,4.64-.87Z"/>
</svg>