  <svg
                        id="heart-o"
                        xmlns="http://www.w3.org/2000/svg"
                        width="24.385"
                        height="20.901"
                        viewBox="0 0 24.385 20.901"
                      >
                        <path
                          id="Path_583"
                          data-name="Path 583"
                          d="M22.643,6.368a5.931,5.931,0,0,0-.293-1.946,3.8,3.8,0,0,0-.748-1.34,3.593,3.593,0,0,0-1.109-.81,4.912,4.912,0,0,0-1.279-.422,7.783,7.783,0,0,0-1.334-.109,3.914,3.914,0,0,0-1.524.347,6.956,6.956,0,0,0-1.5.871q-.687.524-1.177.98a10.531,10.531,0,0,0-.816.837.892.892,0,0,1-1.334,0,10.531,10.531,0,0,0-.816-.837q-.49-.456-1.177-.98a6.956,6.956,0,0,0-1.5-.871A3.914,3.914,0,0,0,6.5,1.742a7.783,7.783,0,0,0-1.334.109,4.912,4.912,0,0,0-1.279.422,3.593,3.593,0,0,0-1.109.81,3.8,3.8,0,0,0-.748,1.34,5.931,5.931,0,0,0-.293,1.946q0,2.286,2.545,4.831l7.906,7.62,7.892-7.607Q22.643,8.655,22.643,6.368Zm1.742,0q0,3.007-3.116,6.123l-8.478,8.165a.854.854,0,0,1-1.2,0L3.1,12.465a4.491,4.491,0,0,1-.374-.354q-.238-.245-.755-.891a12.042,12.042,0,0,1-.925-1.327A8.241,8.241,0,0,1,.32,8.246,5.961,5.961,0,0,1,0,6.368,6.241,6.241,0,0,1,1.728,1.687,6.546,6.546,0,0,1,6.5,0,5.424,5.424,0,0,1,8.226.293a6.967,6.967,0,0,1,1.633.789q.755.5,1.3.932a12.538,12.538,0,0,1,1.034.925,12.538,12.538,0,0,1,1.034-.925q.544-.435,1.3-.932A6.967,6.967,0,0,1,16.159.293,5.424,5.424,0,0,1,17.881,0a6.546,6.546,0,0,1,4.776,1.687A6.241,6.241,0,0,1,24.385,6.368Z"
                        />
                      </svg>