<svg xmlns="http://www.w3.org/2000/svg" xmlns:xlink="http://www.w3.org/1999/xlink" width="34.257" height="22.087" viewBox="0 0 34.257 22.087">
  <defs>
    <linearGradient id="linear-gradient" x1="0.5" x2="0.5" y2="1" gradientUnits="objectBoundingBox">
      <stop offset="0" stop-color="#1d4c80"/>
      <stop offset="1" stop-color="#173a63"/>
    </linearGradient>
  </defs>
  <g id="Group_2774" data-name="Group 2774" transform="translate(0)">
    <rect id="Rectangle_1144" data-name="Rectangle 1144" width="34.257" height="22.087" rx="1" transform="translate(0 0)" fill="url(#linear-gradient)"/>
    <path id="Path_2161" data-name="Path 2161" d="M547.022,1261.607l.152-.6c.585-.176,1.778-.256,2,.377a9.965,9.965,0,0,1-.312,2.347l-.569.008c-.128-.16-.024.136-.112-.256-.545.489-1.706.408-1.618-.577s.937-.849,1.858-.994c-.016-.625-.8-.457-1.41-.312Zm4.286-.1c-.521,0-.6-.112-1.057.088.056.569.352.344.761.617.777.513-.056,2.1-1.906,1.418l.1-.577c.521.1.785.208,1.186-.016.1-.809-1.338-.281-.937-1.578.216-.705,1.169-.609,1.955-.537l-.112.585Zm-7.978-1.226,1.226.04.128,1.923.665-1.538c.224-.553.072-.432,1.482-.417l-.633,3.437-.689-.008.376-2.467-1.017,2.483-.825-.024a17.9,17.9,0,0,0-.192-2.491l-.417,2.5-.721-.008Zm11.687,7.3.336-.4c-.673-.088-.793.1-1.1-.44l1.546-.016a4.486,4.486,0,0,0,.336-.5c-1.762-.12-2.259.328-2.539-.441h2.828l.312-.489-3.493-.016-.16-.409,3.765-.016c.216-.12.216-.256.272-.5l-3.565-.008c-.641.008-.681.152-.8-.432h4.486l.144-.5-1.314-.016-.064.337-.753-.032.473-2.8.713.1c0,.016.016.072.016.1s.008.04.008.048l.04.144a.815.815,0,0,1,.793-.4l-.24.649c-.136.176-.537-.024-.7.457l.785.032a5.061,5.061,0,0,1,.328-1.065l.008-.24-4.91.008-.016.176c.264,0,.256-.048.408.08l-.072.473c-.5.12-.481-.176-.529.473.072.12-.016.056.136.1l.312.008a1.37,1.37,0,0,1,2.355-.769c.184.272.368,1.17-.088,1.242l-1.53.016c.072.809,1,.641,1.6.441-.024.336,0,.609-.312.721a2.408,2.408,0,0,1-1.041,0,1.141,1.141,0,0,1-1.009-1.218l-.288-.008c-.264-.12-.056,0-.192-.328-.112.673-.417,1.106.417,1.009-.048.4.008.537-.432.585-1.282.152-.865-.705-.657-1.85.328-1.827.072-1.6,1-1.586l4.774.008-.1-.5-4.614-.016.088-.4,4.366-.024c-.112-.681-.136-.513-1.722-.513h-2.419c.168-.585.08-.425,1.65-.425h2.123l-.224-.5-3.076-.008.208-.417,2.571-.016c-.328-.673-.312-.48-2.131-.512.232-.577.641-.433,1.354-.433-.2-.32-.344-.3-.465-.569a8.361,8.361,0,0,1-.857-.633,7.787,7.787,0,1,0-2.964,14.082c2.291-.392,2.868-1.322,3.813-1.842Z" transform="translate(-537.846 -1250.732)" fill="#e41d2c" fill-rule="evenodd"/>
    <path id="Path_2162" data-name="Path 2162" d="M1872.674,1265.332c2.483-.5,2.075.721,1.875,1.714-.064.3-.064.881-.3,1.041a3.488,3.488,0,0,1-.417-.008c-.224-.088-.12.176-.152-.232-.673.385-1.738.473-1.61-.6.1-.857.969-.993,1.85-.953-.032-.633-.609-.529-1.41-.328l.168-.633Zm2.451-.072.665.008a.15.15,0,0,1,.016.056l.1.3a.815.815,0,0,1,.7-.352l-.1.569-.328.128c-.657.216-.617,1.041-.793,2.123h-.745Zm3.533-.609h.681l-.585,3.445c-.761.008-.577.048-.817-.24-.5.737-1.987.056-1.53-1.466.337-1.137,1.474-1.442,2.035-.769l.224-.977Zm-11.207-4.326c.12.272.272.248.465.569-.713,0-1.121-.152-1.354.432,1.818.032,1.8-.16,2.131.513l-2.571.016-.208.417,3.076.008.224.5h-2.123c-1.562,0-1.482-.152-1.65.425h2.419c1.586,0,1.61-.168,1.722.513l-4.366.024-.088.4,4.614.016.1.5-4.774-.008-.064.449,4.91-.008-.008.24c.368-.353.3-.537.993-.737a2.7,2.7,0,0,1,1.49.08l-.12.737c-.961-.288-1.586-.216-1.81.777-.248,1.065.593,1.466,1.482,1.041-.08.777-.208.969-1.121.849a1.43,1.43,0,0,1-1.105-.761h-1.146l-.064.441,1.314.016-.144.5h-4.486c.12.585.16.441.8.433l3.565.008c-.064.24-.056.385-.272.5l-3.765.016.16.408,3.493.016-.312.489h-2.828c.281.761.777.32,2.539.441a4.467,4.467,0,0,1-.336.5l-1.546.016c.3.537.424.352,1.1.441l-.336.4a7.839,7.839,0,0,0,8.675,1.169,7.785,7.785,0,0,0-.048-13.978,8.027,8.027,0,0,0-6.945.048,10.733,10.733,0,0,0-1.666,1.153Z" transform="translate(-1850.273 -1255.082)" fill="#f8b02b" fill-rule="evenodd"/>
    <g id="Group_2773" data-name="Group 2773" transform="translate(4.866 9.45)">
      <path id="Path_2163" data-name="Path 2163" d="M634,2031.576l.721.008.417-2.5a17.91,17.91,0,0,1,.192,2.491l.825.024,1.017-2.483-.376,2.467.689.008.633-3.437c-1.41-.016-1.258-.136-1.482.417l-.665,1.538-.128-1.922-1.226-.04Zm22.317-.633c-.6-.617-.088-1.642.473-1.506S657.238,2030.927,656.317,2030.943Zm.977-1.818c-.561-.673-1.69-.369-2.035.769-.457,1.514,1.033,2.2,1.53,1.466.24.288.056.24.817.24l.585-3.444h-.681l-.224.977Zm-5.5,1.826c-.112-.537.384-.745.857-.649A.6.6,0,0,1,651.791,2030.951Zm-.256-2.107-.168.633c.8-.192,1.386-.3,1.41.328-.881-.04-1.746.1-1.85.953-.136,1.073.937.985,1.61.6.032.409-.072.144.152.233a3.542,3.542,0,0,0,.417.008c.24-.152.24-.745.3-1.041.208-1,.609-2.219-1.874-1.714Zm-11.951,1.434a.665.665,0,0,1-.208.617c-.12.088-.481.192-.625.056-.449-.409.392-.681.825-.673Zm-1.274-.817c.609-.144,1.394-.312,1.41.312-.921.144-1.77.016-1.858.993s1.065,1.065,1.618.577c.088.392-.016.1.112.256l.569-.008a10.028,10.028,0,0,0,.312-2.347c-.224-.641-1.41-.561-2-.376l-.152.6Zm6.641.4c.1-.408.28-.577.753-.513.168.24.168.168.2.513Zm-.849.04-.032.433a1.152,1.152,0,0,0,1.009,1.217,2.4,2.4,0,0,0,1.041,0c.312-.1.288-.384.312-.721-.6.2-1.53.368-1.6-.441l1.53-.016c.457-.072.272-.961.088-1.242a1.37,1.37,0,0,0-2.355.769Zm4.662-1.065a5.059,5.059,0,0,0-.328,1.065v.44l.136.489a1.43,1.43,0,0,0,1.105.761c.913.12,1.041-.072,1.121-.849-.9.425-1.73.024-1.482-1.041.232-1,.857-1.066,1.81-.777l.12-.737a2.854,2.854,0,0,0-1.49-.08c-.689.192-.625.385-.993.737Zm-6.064-.056c-.785-.064-1.738-.168-1.955.537-.4,1.3,1.025.769.937,1.578-.409.224-.665.12-1.185.016l-.1.577c1.85.681,2.675-.9,1.906-1.418-.409-.272-.7-.04-.761-.617.457-.208.529-.088,1.057-.088l.112-.585Z" transform="translate(-634 -2028.035)" fill="#fefefe" fill-rule="evenodd"/>
      <path id="Path_2164" data-name="Path 2164" d="M1719.686,2042.766l.056-.192c.048-.649.032-.353.529-.473l.072-.473c-.152-.128-.144-.08-.408-.08l.016-.176.064-.448c-.929-.016-.673-.24-1,1.586-.208,1.146-.625,2,.657,1.85.432-.048.385-.184.432-.585C1719.278,2043.871,1719.582,2043.439,1719.686,2042.766Zm3.765,1.274.064-.441.08-.481.144-.481c.176-.481.577-.28.7-.457l.24-.649a.8.8,0,0,0-.793.4l-.04-.144c0-.008-.008-.032-.008-.048s-.016-.08-.016-.1l-.713-.1-.473,2.8.753.032.064-.336Zm6.144.32h.745c.176-1.081.136-1.906.793-2.123l.328-.128.1-.569a.815.815,0,0,0-.7.353l-.1-.3c-.008-.016-.008-.04-.016-.056l-.665-.008Z" transform="translate(-1710.09 -2040.804)" fill="#fefefe" fill-rule="evenodd"/>
    </g>
    <path id="Path_2165" data-name="Path 2165" d="M3386.406,2202.981c.929-.016,1.033-1.37.472-1.506S3385.8,2202.365,3386.406,2202.981Z" transform="translate(-3359.222 -2190.625)" fill="#f8b02b" fill-rule="evenodd"/>
    <path id="Path_2166" data-name="Path 2166" d="M1212.977,2307.979c-.433-.008-1.274.264-.825.673.144.128.5.024.625-.056a.678.678,0,0,0,.208-.617Zm7.842.545,1.146.008-.136-.489h-.929Z" transform="translate(-1202.528 -2296.286)" fill="#e41d2c" fill-rule="evenodd"/>
    <path id="Path_2167" data-name="Path 2167" d="M2324.285,2257.09a.6.6,0,0,0,.857-.649C2324.662,2256.353,2324.173,2256.561,2324.285,2257.09Zm-4.286-.609h.929v-.441l-.785-.04Z" transform="translate(-2301.628 -2244.724)" fill="#f8b02b" fill-rule="evenodd"/>
    <path id="Path_2168" data-name="Path 2168" d="M2001,2190.873h.953c-.024-.336-.032-.272-.2-.513C2001.28,2190.3,2001.1,2190.465,2001,2190.873Z" transform="translate(-1985.184 -2179.597)" fill="#e41d2c" fill-rule="evenodd"/>
    <path id="Path_2169" data-name="Path 2169" d="M1832,2248.2c.136.328-.072.208.192.328l.288.008.032-.432-.312-.008c-.16-.032-.072.024-.136-.1l-.056.192Z" transform="translate(-1817.537 -2236.788)" fill="#f8b02b" fill-rule="evenodd"/>
  </g>
</svg>
