<svg xmlns="http://www.w3.org/2000/svg" width="32" height="32" viewBox="0 0 32 32">
  <g id="Group_2552" data-name="Group 2552" transform="translate(-1656 -69)">
    <path id="Path_2070_-_Outline" data-name="Path 2070 - Outline" d="M34.5,18.5a16,16,0,1,1-16,16A16.018,16.018,0,0,1,34.5,18.5Zm0,31.03a15.172,15.172,0,0,0,11.882-5.836A14.727,14.727,0,0,0,49.53,34.5,15.03,15.03,0,1,0,34.5,49.53Zm0-30.029A14.989,14.989,0,0,1,45.7,44.465l-.416.467-.349-.519A12.164,12.164,0,0,0,37.495,39.3l-1.4-.317,1.309-.6a7.013,7.013,0,1,0-5.634.081l1.315.558-1.383.358a12.275,12.275,0,0,0-7.329,5.34l-.333.527-.429-.453A14.988,14.988,0,0,1,34.5,19.5ZM45.372,43.353a14.03,14.03,0,1,0-21.471.322A13.326,13.326,0,0,1,30.3,38.8a8,8,0,1,1,8.575-.124A13.123,13.123,0,0,1,45.372,43.353ZM34.5,25.006A6.991,6.991,0,1,1,27.509,32,7,7,0,0,1,34.5,25.006Zm0,13.013A6.022,6.022,0,1,0,28.478,32,6.028,6.028,0,0,0,34.5,38.019Zm.25,1a12.154,12.154,0,0,1,10.282,5.6l.215.333-.284.277a14.965,14.965,0,0,1-20.6.308l-.292-.269.206-.34A12.325,12.325,0,0,1,34.75,39.02Zm9.244,5.8A11.226,11.226,0,0,0,34.75,39.99,11.352,11.352,0,0,0,25.317,45.1a13.994,13.994,0,0,0,18.677-.28Z" transform="translate(1637.5 50.5)"/>
    <path id="Path_2070" data-name="Path 2070" d="M34.553,19A15.553,15.553,0,1,0,50.106,34.553,15.571,15.571,0,0,0,34.553,19ZM20,34.553a14.549,14.549,0,1,1,25.412,9.666,12.667,12.667,0,0,0-7.753-5.329,7.517,7.517,0,1,0-6.04.086,12.857,12.857,0,0,0-7.636,5.563A14.494,14.494,0,0,1,20,34.553Zm14.549,4.014a6.522,6.522,0,1,1,6.522-6.522A6.53,6.53,0,0,1,34.553,38.567Zm-9.836,6.7A11.837,11.837,0,0,1,34.8,39.57a11.7,11.7,0,0,1,9.9,5.393,14.515,14.515,0,0,1-19.985.3Z" transform="translate(1637.447 50.447)"/>
  </g>
</svg>
