<svg xmlns="http://www.w3.org/2000/svg" xmlns:xlink="http://www.w3.org/1999/xlink" width="17.068" height="17.068" viewBox="0 0 17.068 17.068">
  <defs>
    <clipPath id="clip-path">
      <rect id="Rectangle_1305" data-name="Rectangle 1305" width="17.068" height="17.068" fill="#fff" stroke="#707070" stroke-width="1"/>
    </clipPath>
  </defs>
  <g id="Mask_Group_186" data-name="Mask Group 186" clip-path="url(#clip-path)">
    <g id="Group_2861" data-name="Group 2861" transform="translate(0.987 -0.534)">
      <path id="Path_2230" data-name="Path 2230" d="M86.588,178.66h9.767v1.11H86.588Zm6.641-8.934H89.807a.555.555,0,1,0,0,1.11h3.422a.555.555,0,1,0,0-1.11Zm2.59,2.59H89.807a.555.555,0,0,0,0,1.11h6.012a.555.555,0,0,0,0-1.11Z" transform="translate(-84.035 -163.201)" fill="#3a3a3a"/>
      <path id="Path_2231" data-name="Path 2231" d="M14.767,1.635a.555.555,0,0,0-.6.09L12.617,3.1,11.061,1.709a.555.555,0,0,0-.74,0L8.768,3.1,7.214,1.709a.555.555,0,0,0-.74,0L4.918,3.1,3.364,1.725a.555.555,0,0,0-.923.416v9.878H.555A.555.555,0,0,0,0,12.574v1.35a2.648,2.648,0,0,0,2.645,2.645v-1.11A1.537,1.537,0,0,1,1.11,13.924v-.8H9.8v.8a2.645,2.645,0,1,0,5.29,0V2.141a.555.555,0,0,0-.327-.506Zm-.783,12.289a1.535,1.535,0,1,1-3.071,0v-1.35a.555.555,0,0,0-.555-.555H3.552V3.373l1,.886a.555.555,0,0,0,.737,0l1.554-1.39L8.4,4.256a.555.555,0,0,0,.74,0l1.554-1.39,1.554,1.39a.555.555,0,0,0,.737,0l1-.886V13.924Z" transform="translate(0)" fill="#3a3a3a"/>
    </g>
  </g>
</svg>
