<svg xmlns="http://www.w3.org/2000/svg" xmlns:xlink="http://www.w3.org/1999/xlink" width="17.068" height="17.068" viewBox="0 0 17.068 17.068">
  <defs>
    <clipPath id="clip-path">
      <rect id="Rectangle_321" data-name="Rectangle 321" width="17.068" height="17.068" fill="#fff" stroke="#707070" stroke-width="1"/>
    </clipPath>
  </defs>
  <g id="Mask_Group_58" data-name="Mask Group 58" clip-path="url(#clip-path)">
    <g id="Group_2862" data-name="Group 2862" transform="translate(1.534 0.726)">
      <path id="Path_2232" data-name="Path 2232" d="M5.734,15.006a.61.61,0,0,1-.61.61H2.44A2.443,2.443,0,0,1,0,13.176V2.44A2.443,2.443,0,0,1,2.44,0h7.5a2.443,2.443,0,0,1,2.44,2.44V8.265a.61.61,0,0,1-1.22,0V2.44a1.221,1.221,0,0,0-1.22-1.22H2.44A1.221,1.221,0,0,0,1.22,2.44V13.176A1.221,1.221,0,0,0,2.44,14.4H5.124A.61.61,0,0,1,5.734,15.006ZM9.329,3.66H3.047a.61.61,0,0,0,0,1.22H9.329a.61.61,0,0,0,0-1.22Zm.61,3.05a.61.61,0,0,0-.61-.61H3.047a.61.61,0,1,0,0,1.22H9.329A.61.61,0,0,0,9.939,6.71ZM3.047,8.54a.61.61,0,0,0,0,1.22H6.252a.61.61,0,1,0,0-1.22Zm10.842,4.468c-.021.031-.095.135-.141.192a8.58,8.58,0,0,1-1.348,1.39A4.183,4.183,0,0,1,9.79,15.616a4.183,4.183,0,0,1-2.609-1.026A8.581,8.581,0,0,1,5.833,13.2c-.046-.058-.119-.162-.141-.192a.61.61,0,0,1,0-.7c.021-.03.095-.135.141-.192a8.58,8.58,0,0,1,1.348-1.389A4.183,4.183,0,0,1,9.79,9.7,4.183,4.183,0,0,1,12.4,10.725a8.581,8.581,0,0,1,1.348,1.389c.046.058.119.162.141.192A.61.61,0,0,1,13.888,13.008Zm-1.272-.351A3.965,3.965,0,0,0,9.79,10.919a3.964,3.964,0,0,0-2.826,1.738A3.965,3.965,0,0,0,9.79,14.4,3.964,3.964,0,0,0,12.616,12.657ZM9.821,11.5a1.159,1.159,0,1,0,1.159,1.159A1.159,1.159,0,0,0,9.821,11.5Zm0,0" fill="#3a3a3a"/>
    </g>
  </g>
</svg>
