<svg xmlns="http://www.w3.org/2000/svg" width="34.663" height="21.858" viewBox="0 0 34.663 21.858">
  <g id="Group_2772" data-name="Group 2772" transform="translate(0)">
    <path id="Path_2159" data-name="Path 2159" d="M34.663,115.2a1.285,1.285,0,0,1-1.286,1.286H1.286A1.285,1.285,0,0,1,0,115.2V95.914a1.286,1.286,0,0,1,1.286-1.286H33.377a1.286,1.286,0,0,1,1.286,1.286V115.2Z" transform="translate(0 -94.628)" fill="#21246e"/>
    <path id="Path_2160" data-name="Path 2160" d="M40.56,185.858l-3.857,9.2H34.186l-1.9-7.344a1.017,1.017,0,0,0-.567-.81,10.005,10.005,0,0,0-2.35-.782l.058-.267h4.05a1.11,1.11,0,0,1,1.1.938l1,5.327,2.477-6.265h2.5Zm9.86,6.2c.011-2.428-3.359-2.56-3.335-3.646.007-.331.321-.682,1.009-.771a4.493,4.493,0,0,1,2.348.411l.418-1.951a6.4,6.4,0,0,0-2.227-.407c-2.353,0-4.009,1.252-4.023,3.042-.015,1.324,1.182,2.063,2.085,2.5.927.451,1.237.739,1.234,1.144-.006.618-.74.888-1.424.9a4.982,4.982,0,0,1-2.446-.582l-.431,2.018a7.261,7.261,0,0,0,2.648.49c2.5,0,4.137-1.238,4.145-3.152m6.214,3.006h2.2l-1.922-9.2H54.882a1.086,1.086,0,0,0-1.014.675l-3.57,8.529h2.5l.5-1.374h3.055l.287,1.375ZM53.978,191.8l1.254-3.456.721,3.456Zm-10.015-5.943-1.97,9.2H39.611l1.97-9.2h2.381Z" transform="translate(-27.386 -179.529)" fill="#fff"/>
  </g>
</svg>
