<svg id="Group_2801" data-name="Group 2801" xmlns="http://www.w3.org/2000/svg" xmlns:xlink="http://www.w3.org/1999/xlink" width="743.732" height="163.595" viewBox="0 0 743.732 163.595">
  <defs>
    <clipPath id="clip-path">
      <rect id="Rectangle_817" data-name="Rectangle 817" width="743.732" height="163.595" fill="#f7f7f9"/>
    </clipPath>
  </defs>
  <g id="Group_2547" data-name="Group 2547" clip-path="url(#clip-path)">
    <path id="Path_2087" data-name="Path 2087" d="M131.989,31.527c.677-4.76-.324-8.668-2.978-11.565-2.466-2.74-3.494-3.693-6.416-4.343a6.708,6.708,0,0,0-4.346-2.306c-3.106-.442-5.877.956-6.181,3.1-.308,2.163,1.962,4.279,5.068,4.721a6.582,6.582,0,0,0,4.934-1.091c2.11.508,2.073,1.1,3.663,2.885,1.754,1.912,2.37,4.519,1.878,7.98-1.048,7.358-7.635,16.639-13.274,25.422-.84,1.335-4.829,7.063-5.716,8.183a3.554,3.554,0,0,0-2.628,1.132c-5.317,5.791-2.483,5.808-9.256,4.844-6.434-1.148-3.428-.337-6.8-7.13a3.428,3.428,0,0,0-2.21-1.793c-.536-1.35-1.906-5.34-2.338-6.858C82.421,44.7,77.816,31.353,78.864,24c.492-3.463,1.811-5.8,4-7.145,2.055-1.291,2.158-1.875,4.351-1.77A6.5,6.5,0,0,0,91.652,17.5c3.106.442,5.874-.931,6.181-3.1s-1.967-4.253-5.072-4.7a6.658,6.658,0,0,0-4.844,1c-2.956-.213-4.213.439-7.344,2.357-3.359,2.067-5.406,5.516-6.088,10.3-1.115,7.841,4.184,27.733,9.216,40.005a3.551,3.551,0,0,0,.006,3.066c3.734,7.52,1.689,7.778,8.614,10.036-.148,3.031-3.267,5.525-5.546,7.427l5.361,3c1.884-2.436,4.827-5.884,6.221-9.563,7.365-.277,7.139-.917,12.759-7a3.565,3.565,0,0,0,.86-2.942c8.256-10.383,18.892-28.007,20.012-35.874" transform="translate(16.648 2.157)" fill="#f7f7f9" fill-rule="evenodd"/>
    <path id="Path_2088" data-name="Path 2088" d="M84.566,147.847c-11.238,0-21.164-2.2-29.027-6.715-10.472-6.013-16.24-15.9-16.24-27.83,0-23.867,23.452-31.357,40.578-36.825,6.645-2.122,12.417-3.911,14.745-6.16l5.7,2.572c-3.58,4.362-9.542,6.292-18.579,9.418-16.053,5.553-36.32,11.6-36.32,31,0,9.788,4.553,17.577,13.167,22.523,20.872,11.987,58.441,5.679,95.708-16.068l3.084,5.285c-25.594,14.936-51.553,22.8-72.812,22.8" transform="translate(8.801 15.748)" fill="#f7f7f9"/>
    <path id="Path_2089" data-name="Path 2089" d="M128.378,107.395l5.492,8.145,14.853-10.013Z" transform="translate(28.752 23.634)" fill="#f7f7f9"/>
    <path id="Path_2090" data-name="Path 2090" d="M147.718,105.527,132.864,115.54l5.492,8.146Z" transform="translate(29.756 23.634)" fill="#f7f7f9"/>
    <path id="Path_2091" data-name="Path 2091" d="M137.942,112.453l-9.564-5.4,5.492,8.145,5.491,8.145Z" transform="translate(28.752 23.976)" fill="#f7f7f9"/>
    <path id="Path_2092" data-name="Path 2092" d="M730.053,48.748a26.494,26.494,0,0,0-1.028-7.542,12.549,12.549,0,0,0-3.446-5.724,9.174,9.174,0,0,0-6.5-2.263,9.754,9.754,0,0,0-6.6,2.28,13.189,13.189,0,0,0-3.857,5.88,23.294,23.294,0,0,0-1.2,7.474,21.078,21.078,0,0,0,2.726,10.935q2.724,4.6,8.639,4.594a8.956,8.956,0,0,0,6.358-2.33,14.18,14.18,0,0,0,3.7-5.983,23.1,23.1,0,0,0,1.2-7.319M707.427,94.927H694.159V38.035c0-5.827-.171-10.781-.5-14.894h12.7l.206,7.919a20.267,20.267,0,0,1,25.745-6.737,18.347,18.347,0,0,1,6.428,5.759,25.891,25.891,0,0,1,3.754,8.28,37.2,37.2,0,0,1,1.234,9.581,40.225,40.225,0,0,1-2.125,13.371,21.045,21.045,0,0,1-6.908,9.821q-4.757,3.729-12.084,3.737a19.843,19.843,0,0,1-8.913-2.056,15.5,15.5,0,0,1-6.531-5.931c.171,1.715.257,4.3.257,7.782ZM669.494,48.748a25.193,25.193,0,0,0-1.338-8.09,14.713,14.713,0,0,0-4.234-6.53,11.22,11.22,0,0,0-14.192-.051,15.067,15.067,0,0,0-4.338,6.41,22.81,22.81,0,0,0-1.405,7.85,25.725,25.725,0,0,0,1.337,8.245,14.532,14.532,0,0,0,4.234,6.5,10.807,10.807,0,0,0,7.389,2.537,10.253,10.253,0,0,0,5.57-1.525,12.4,12.4,0,0,0,3.908-3.926,19.122,19.122,0,0,0,2.3-5.365,24.059,24.059,0,0,0,.772-6.051m13.678.274a29.473,29.473,0,0,1-1.9,10.765,23.681,23.681,0,0,1-5.417,8.347,24.642,24.642,0,0,1-8.365,5.349,29.546,29.546,0,0,1-10.85,1.9,27.46,27.46,0,0,1-13.867-3.41,23.2,23.2,0,0,1-9.221-9.651,29.862,29.862,0,0,1-3.24-14A28.217,28.217,0,0,1,633.634,34.5a23.519,23.519,0,0,1,9.308-9.36,27.912,27.912,0,0,1,13.8-3.343,28.647,28.647,0,0,1,10.936,2.006,23.586,23.586,0,0,1,8.365,5.707,25.094,25.094,0,0,1,5.3,8.656,31.222,31.222,0,0,1,1.833,10.85M620.332,74.048H607.168V49.332a35.771,35.771,0,0,0-1.577-11.726q-1.594-4.4-7.456-4.388c-4.218,0-7.165,1.732-8.879,5.194A27.382,27.382,0,0,0,586.7,50.6V74.048H573.538V0H586.7V30.357a18.382,18.382,0,0,1,6.874-6.137,20.292,20.292,0,0,1,9.187-2.006,20,20,0,0,1,8.862,1.732,13.105,13.105,0,0,1,5.366,4.7,19.594,19.594,0,0,1,2.622,6.908,52.256,52.256,0,0,1,.72,9.273ZM518.481,72.471l1.268-12.307q8.126,4.423,15.512,4.423a14.9,14.9,0,0,0,8.365-2.366,7.755,7.755,0,0,0,3.583-6.925q0-4.6-3.033-6.564a86.688,86.688,0,0,0-11.022-5.4q-8-3.446-11.983-7.679t-3.994-12.118a17.584,17.584,0,0,1,3.343-10.97,19.549,19.549,0,0,1,8.827-6.48A33.594,33.594,0,0,1,541.33,4.011,49.046,49.046,0,0,1,557.7,6.718l-1.148,11.3A34.194,34.194,0,0,0,542.358,14.6a14.579,14.579,0,0,0-7.7,1.989,6.745,6.745,0,0,0-3.291,6.239c0,2.709.823,4.578,2.452,5.571a117.878,117.878,0,0,0,11.159,5.347q8.715,3.857,12.821,8.177,4.114,4.344,4.114,12.187a21.1,21.1,0,0,1-2.057,9.633,18.437,18.437,0,0,1-5.707,6.7,25.18,25.18,0,0,1-8.33,3.891,38.217,38.217,0,0,1-9.959,1.252,53.408,53.408,0,0,1-17.38-3.121m-54.046,1.578H451.271v-35.6c-.171-8.467-.308-13.559-.394-15.307h11.947l.308,12.821a22.126,22.126,0,0,1,5.193-9.615,12.02,12.02,0,0,1,9.1-3.617,17.687,17.687,0,0,1,3.857.5V35.567a18.2,18.2,0,0,0-4.612-.7,10.692,10.692,0,0,0-7.421,2.468,12.566,12.566,0,0,0-3.788,6.291,32.641,32.641,0,0,0-1.029,8.416V74.048Zm-37.727-25.3a25.191,25.191,0,0,0-1.337-8.09,14.733,14.733,0,0,0-4.234-6.53,11.222,11.222,0,0,0-14.193-.051,15.077,15.077,0,0,0-4.337,6.41,22.813,22.813,0,0,0-1.406,7.85,25.726,25.726,0,0,0,1.338,8.245,14.511,14.511,0,0,0,4.234,6.5,10.8,10.8,0,0,0,7.388,2.537,10.249,10.249,0,0,0,5.57-1.525,12.379,12.379,0,0,0,3.908-3.926,19.093,19.093,0,0,0,2.3-5.365,24.114,24.114,0,0,0,.771-6.051m13.679.274a29.474,29.474,0,0,1-1.9,10.765,23.678,23.678,0,0,1-5.416,8.347,24.666,24.666,0,0,1-8.365,5.349,29.551,29.551,0,0,1-10.85,1.9,27.454,27.454,0,0,1-13.867-3.41,23.186,23.186,0,0,1-9.221-9.651,29.847,29.847,0,0,1-3.24-14A28.2,28.2,0,0,1,390.849,34.5a23.508,23.508,0,0,1,9.307-9.36,27.917,27.917,0,0,1,13.8-3.343,28.646,28.646,0,0,1,10.936,2.006,23.608,23.608,0,0,1,8.364,5.707,25.074,25.074,0,0,1,5.3,8.656,31.224,31.224,0,0,1,1.835,10.85M380.992,63.164l.446,10.285a46.019,46.019,0,0,1-8.879,1.011c-4.319,0-7.748-.788-10.251-2.382a12.637,12.637,0,0,1-5.279-6.788,33.265,33.265,0,0,1-1.508-10.765V33.218h-9.6v-9.77h9.805V13.1l13.164-4.336v14.69h11.6v9.77h-11.6V51.765a24.512,24.512,0,0,0,1.285,9.016c.857,2.057,2.949,3.086,6.291,3.086a18.382,18.382,0,0,0,4.525-.7M342.631,61.4l.737,11.107a42.35,42.35,0,0,1-11.844,1.953,31.125,31.125,0,0,1-10.7-1.782,23.172,23.172,0,0,1-8.366-5.194,22.63,22.63,0,0,1-5.313-8.313,30.813,30.813,0,0,1-1.835-10.833,27.025,27.025,0,0,1,3.24-13.352,22.622,22.622,0,0,1,9.137-9.034,27.464,27.464,0,0,1,13.335-3.221,39.472,39.472,0,0,1,11.193,1.662l-.994,10.593a22.54,22.54,0,0,0-8.142-1.766,13.65,13.65,0,0,0-7.371,2.04,13.435,13.435,0,0,0-4.989,5.416,16.473,16.473,0,0,0-1.731,7.559q0,6.89,4.011,11.056t10.782,4.165a21.3,21.3,0,0,0,8.844-2.056M284.044,48.748a25.159,25.159,0,0,0-1.338-8.09,14.712,14.712,0,0,0-4.234-6.53,11.22,11.22,0,0,0-14.192-.051,15.079,15.079,0,0,0-4.338,6.41,22.811,22.811,0,0,0-1.405,7.85,25.694,25.694,0,0,0,1.338,8.245,14.519,14.519,0,0,0,4.232,6.5,10.807,10.807,0,0,0,7.389,2.537,10.252,10.252,0,0,0,5.57-1.525,12.4,12.4,0,0,0,3.908-3.926,19.163,19.163,0,0,0,2.3-5.365,24.114,24.114,0,0,0,.771-6.051m13.678.274a29.473,29.473,0,0,1-1.9,10.765,23.68,23.68,0,0,1-5.417,8.347,24.642,24.642,0,0,1-8.365,5.349,29.551,29.551,0,0,1-10.85,1.9,27.453,27.453,0,0,1-13.866-3.41,23.2,23.2,0,0,1-9.223-9.651,29.862,29.862,0,0,1-3.24-14A28.217,28.217,0,0,1,248.184,34.5a23.519,23.519,0,0,1,9.308-9.36,27.912,27.912,0,0,1,13.8-3.343,28.646,28.646,0,0,1,10.936,2.006,23.586,23.586,0,0,1,8.365,5.707,25.1,25.1,0,0,1,5.3,8.656,31.223,31.223,0,0,1,1.833,10.85M191.6,63.455c.771,0,1.406.017,1.9.034.514.017,1.045.034,1.611.069a37.54,37.54,0,0,0,10.9-1.474,22.712,22.712,0,0,0,8.262-4.456,19.952,19.952,0,0,0,5.3-7.525,28.075,28.075,0,0,0,1.851-10.645,25.954,25.954,0,0,0-2.656-11.536,19.9,19.9,0,0,0-11.983-10.2,29.921,29.921,0,0,0-4.816-.977c-1.7-.188-3.565-.326-5.622-.394s-3.651-.1-4.749-.1ZM177.718,74.048V5.553h15.615q6.376,0,11.416.394a50.646,50.646,0,0,1,10.045,1.869,30.176,30.176,0,0,1,9.084,4.3,24.611,24.611,0,0,1,5.827,5.467,27.579,27.579,0,0,1,3.789,6.6,35.018,35.018,0,0,1,2.056,7.525,49.117,49.117,0,0,1,.685,8.245,41.482,41.482,0,0,1-2.983,15.889A28.08,28.08,0,0,1,216.045,71.7a43.145,43.145,0,0,1-8.9,1.869,90.338,90.338,0,0,1-9.582.48Zm-99.967,0H63.868V33.528c.206-6.171.5-12.342.908-18.53h-.411c-.67,2.707-1.355,5.09-2.057,7.13L44.841,74.048H32.087L17.277,31.162Q14.527,23.113,12.564,15h-.411c.668,6.616,1.011,12.633,1.011,18.014V74.048H0V5.553H21.905L34.35,41.5A124.334,124.334,0,0,1,38.773,58.33c.6-2.88,1.165-5.365,1.732-7.491.548-2.125,1.165-4.251,1.868-6.394L55.536,5.553H77.751Z" fill="#f7f7f9"/>
    <path id="Path_2093" data-name="Path 2093" d="M653.917,99.344a6.5,6.5,0,0,0,.165-2.332,2.73,2.73,0,0,0-.827-1.714,2.763,2.763,0,0,0-1.978-.656,4.851,4.851,0,0,0-2.447.643,6.393,6.393,0,0,0-1.911,1.709,8.522,8.522,0,0,0-1.253,2.35Zm1.648,6.239-1.056,4.23a18.7,18.7,0,0,1-6.849,1.306,10.642,10.642,0,0,1-3.97-.662,5.725,5.725,0,0,1-2.584-1.962,6.262,6.262,0,0,1-1.122-3.136,11.939,11.939,0,0,1,.454-4.192,14.925,14.925,0,0,1,1.692-3.983,13.5,13.5,0,0,1,2.649-3.153,11.575,11.575,0,0,1,3.457-2.084,11.328,11.328,0,0,1,4.112-.745,7.443,7.443,0,0,1,3.548.765,4.7,4.7,0,0,1,2.071,2.115,7.244,7.244,0,0,1,.689,3.11,13.967,13.967,0,0,1-.534,3.874c-.067.248-.125.439-.17.561s-.1.28-.163.465-.141.408-.233.656h-12.73a3.751,3.751,0,0,0,.81,3.492,4.728,4.728,0,0,0,3.539,1.248,14.864,14.864,0,0,0,6.391-1.9m-32.332,5.039h-4.894l3.547-13.233c.778-3.147,1.235-5.039,1.377-5.689H627.7l-1.163,4.765a11.86,11.86,0,0,1,2.889-3.574,5.756,5.756,0,0,1,3.743-1.344,5.956,5.956,0,0,1,1.384.185l-1.229,4.586a6.025,6.025,0,0,0-1.644-.261,4.985,4.985,0,0,0-3,.918,6.8,6.8,0,0,0-2.035,2.338,14.788,14.788,0,0,0-1.22,3.128l-.1.376Zm-18.6-8.6a2.986,2.986,0,0,0-.569-.039h-.6a23.061,23.061,0,0,0-2.99.179,6.417,6.417,0,0,0-2.573.9,3.355,3.355,0,0,0-1.562,2.1,1.666,1.666,0,0,0,.408,1.783,2.66,2.66,0,0,0,1.886.663,5.082,5.082,0,0,0,3.8-1.644,8.9,8.9,0,0,0,2.2-3.937m2.283,8.6h-4.365l.684-2.835a8.651,8.651,0,0,1-3.077,2.326,8.788,8.788,0,0,1-3.646.815,7.026,7.026,0,0,1-3.194-.656,3.528,3.528,0,0,1-1.811-1.988,5.264,5.264,0,0,1,.006-3.237,6.86,6.86,0,0,1,4.086-4.854,18.351,18.351,0,0,1,7.13-1.306c.382,0,.63,0,.743.006l.736.038c.384.02.765.044,1.16.07a3.691,3.691,0,0,0-.185-3.141,3.425,3.425,0,0,0-2.9-1.026,11.62,11.62,0,0,0-6.417,2.07l.994-4.256a19.325,19.325,0,0,1,6.935-1.293,12.482,12.482,0,0,1,2.562.261,6.567,6.567,0,0,1,2.188.867,3.762,3.762,0,0,1,1.414,1.618,4.435,4.435,0,0,1,.351,2.307,18.786,18.786,0,0,1-.593,3.089q-.494,1.845-.989,3.715t-.874,3.4c-.257,1.032-.569,2.363-.934,4.007m-24.693-4.7-.832,4.128a17.789,17.789,0,0,1-4.6.726,10.131,10.131,0,0,1-3.8-.662,5.954,5.954,0,0,1-2.591-1.931,6.134,6.134,0,0,1-1.148-3.089,11.132,11.132,0,0,1,.4-4.027,13,13,0,0,1,2.534-4.963,12.4,12.4,0,0,1,4.3-3.359,12.16,12.16,0,0,1,5.278-1.2,13.053,13.053,0,0,1,4,.617L584.332,96.1a7.087,7.087,0,0,0-2.851-.656,6.175,6.175,0,0,0-2.943.758,7.386,7.386,0,0,0-2.394,2.013,7.862,7.862,0,0,0-1.4,2.809,4.8,4.8,0,0,0,.389,4.11,4.066,4.066,0,0,0,3.594,1.548,9.369,9.369,0,0,0,3.493-.764m-25.362,4.7h-4.892l2.461-9.187a13.2,13.2,0,0,0,.582-4.359c-.1-1.089-.881-1.63-2.334-1.63a4.58,4.58,0,0,0-3.818,1.93,12.953,12.953,0,0,0-2.163,4.53l-.255.949-2.082,7.767h-4.893L546.845,83.1h4.893l-3.023,11.284a10.039,10.039,0,0,1,3.166-2.281,8.866,8.866,0,0,1,3.614-.744,6.343,6.343,0,0,1,3.121.643,3.3,3.3,0,0,1,1.526,1.745,6.068,6.068,0,0,1,.288,2.568,20.415,20.415,0,0,1-.656,3.448Zm-26.329-4.045-.858,3.822a18.666,18.666,0,0,1-3.4.376,5.865,5.865,0,0,1-3.573-.885,3.321,3.321,0,0,1-1.286-2.524,12.236,12.236,0,0,1,.51-4l2.122-7.919h-3.568l.973-3.633H525.1l1.032-3.848,5.324-1.612-1.463,5.46h4.313l-.973,3.633h-4.313l-1.847,6.893a8.979,8.979,0,0,0-.421,3.351q.171,1.147,2.032,1.147a7.691,7.691,0,0,0,1.751-.261m-23.107,4.045h-4.893L509.909,83.1H514.8Zm-18.406-8.6a2.979,2.979,0,0,0-.569-.039h-.6a23.072,23.072,0,0,0-2.991.179,6.418,6.418,0,0,0-2.573.9,3.36,3.36,0,0,0-1.562,2.1,1.666,1.666,0,0,0,.408,1.783,2.662,2.662,0,0,0,1.886.663,5.082,5.082,0,0,0,3.8-1.644,8.906,8.906,0,0,0,2.2-3.937m2.283,8.6h-4.365l.684-2.835a8.66,8.66,0,0,1-3.076,2.326,8.8,8.8,0,0,1-3.647.815,7.03,7.03,0,0,1-3.195-.656,3.528,3.528,0,0,1-1.811-1.988,5.264,5.264,0,0,1,.006-3.237,6.86,6.86,0,0,1,4.086-4.854,18.352,18.352,0,0,1,7.13-1.306c.382,0,.632,0,.743.006l.737.038c.383.02.765.044,1.159.07a3.7,3.7,0,0,0-.184-3.141,3.427,3.427,0,0,0-2.9-1.026,11.62,11.62,0,0,0-6.417,2.07l.994-4.256a19.326,19.326,0,0,1,6.935-1.293,12.482,12.482,0,0,1,2.562.261,6.566,6.566,0,0,1,2.189.867,3.771,3.771,0,0,1,1.415,1.618,4.447,4.447,0,0,1,.35,2.307A18.8,18.8,0,0,1,494.1,99.5q-.494,1.845-.989,3.715t-.874,3.4c-.257,1.032-.569,2.363-.934,4.007M463.486,99.344a6.5,6.5,0,0,0,.165-2.332,2.73,2.73,0,0,0-.827-1.714,2.763,2.763,0,0,0-1.978-.656,4.851,4.851,0,0,0-2.447.643,6.394,6.394,0,0,0-1.911,1.709,8.535,8.535,0,0,0-1.253,2.35Zm1.647,6.239-1.056,4.23a18.7,18.7,0,0,1-6.849,1.306,10.642,10.642,0,0,1-3.97-.662,5.725,5.725,0,0,1-2.584-1.962,6.262,6.262,0,0,1-1.122-3.136,11.942,11.942,0,0,1,.454-4.192,14.929,14.929,0,0,1,1.691-3.983,13.5,13.5,0,0,1,2.649-3.153,11.575,11.575,0,0,1,3.457-2.084,11.329,11.329,0,0,1,4.112-.745,7.443,7.443,0,0,1,3.548.765,4.7,4.7,0,0,1,2.071,2.115,7.245,7.245,0,0,1,.689,3.11,14.016,14.016,0,0,1-.534,3.874c-.067.248-.125.439-.17.561s-.1.28-.163.465-.141.408-.233.656h-12.73a3.751,3.751,0,0,0,.81,3.492,4.727,4.727,0,0,0,3.538,1.248,14.864,14.864,0,0,0,6.392-1.9m-28.542,5.039h-5.16l2.94-10.972H424.2l-2.94,10.972H416.1l6.822-25.46h5.161l-2.766,10.322h10.169l2.766-10.322h5.161Zm-45.217-9.672a7.472,7.472,0,0,0,.25-1.975,4.715,4.715,0,0,0-.327-1.8,2.842,2.842,0,0,0-1.049-1.268,3.041,3.041,0,0,0-1.753-.5,4.61,4.61,0,0,0-3.562,1.644,9.247,9.247,0,0,0-2.073,3.862,6.849,6.849,0,0,0-.012,3.969,2.486,2.486,0,0,0,2.636,1.765,4.518,4.518,0,0,0,2.652-.841,7.568,7.568,0,0,0,2.033-2.166,9.6,9.6,0,0,0,1.2-2.689m2.656-9.219H398.7l-4.447,16.6a14.948,14.948,0,0,1-4.439,7.748,12.209,12.209,0,0,1-8.193,2.613,14.874,14.874,0,0,1-6.267-1.345l1.531-4.236a13.594,13.594,0,0,0,2.608,1.153,9.021,9.021,0,0,0,2.737.414,7.912,7.912,0,0,0,3.186-.688,6.322,6.322,0,0,0,2.58-2.021,7.653,7.653,0,0,0,1.06-1.98q.393-1.08,1-3.154a10.613,10.613,0,0,1-3.354,2.765,8.417,8.417,0,0,1-3.933,1.026,5.3,5.3,0,0,1-3.923-1.363,5.554,5.554,0,0,1-1.56-3.568,13.352,13.352,0,0,1,.464-4.7,16.89,16.89,0,0,1,2.082-4.753,11.561,11.561,0,0,1,3.5-3.536,8.538,8.538,0,0,1,4.711-1.344,6.209,6.209,0,0,1,3.382.84,3.954,3.954,0,0,1,1.723,2.556ZM357.158,91.7l-.694,3.02a9.761,9.761,0,0,1,7.262-3.326q3.806,0,4.52,2.248t-.368,6.321l-2.855,10.66h-4.893l2.551-9.519a10.681,10.681,0,0,0,.452-4.09q-.218-1.568-2.357-1.567a4.468,4.468,0,0,0-3.711,1.841,12.183,12.183,0,0,0-2.1,4.357l-2.406,8.978h-4.931l3.226-12.035q1.074-4.015,1.66-6.887Zm-15.1-3.441h-5.046l1.24-4.627H343.3Zm-6.068,22.363H331.1L336.167,91.7h4.893Zm-13.828-4.045L321.3,110.4a18.654,18.654,0,0,1-3.4.376,5.867,5.867,0,0,1-3.573-.885,3.328,3.328,0,0,1-1.286-2.524,12.269,12.269,0,0,1,.512-4l2.122-7.919h-3.568l.973-3.633h3.644l1.032-3.848,5.324-1.612-1.463,5.46h4.313l-.972,3.633h-4.314l-1.847,6.893a8.968,8.968,0,0,0-.42,3.351c.114.765.788,1.147,2.031,1.147a7.707,7.707,0,0,0,1.753-.261m-20.567-.656-.831,4.128a17.788,17.788,0,0,1-4.6.726,10.128,10.128,0,0,1-3.8-.662,5.965,5.965,0,0,1-2.592-1.931,6.134,6.134,0,0,1-1.147-3.089,11.08,11.08,0,0,1,.4-4.027,12.988,12.988,0,0,1,2.534-4.963,12.4,12.4,0,0,1,4.295-3.359,12.165,12.165,0,0,1,5.279-1.2,13.051,13.051,0,0,1,3.995.617L303.7,96.1a7.086,7.086,0,0,0-2.851-.656,6.171,6.171,0,0,0-2.942.758,7.383,7.383,0,0,0-2.394,2.013,7.861,7.861,0,0,0-1.4,2.809,4.793,4.793,0,0,0,.389,4.11,4.065,4.065,0,0,0,3.594,1.548,9.363,9.363,0,0,0,3.492-.764M275.5,99.344a6.522,6.522,0,0,0,.165-2.332,2.73,2.73,0,0,0-.827-1.714,2.765,2.765,0,0,0-1.978-.656,4.845,4.845,0,0,0-2.447.643,6.394,6.394,0,0,0-1.911,1.709,8.567,8.567,0,0,0-1.255,2.35Zm1.647,6.239-1.056,4.23a18.707,18.707,0,0,1-6.851,1.306,10.64,10.64,0,0,1-3.969-.662,5.725,5.725,0,0,1-2.584-1.962,6.249,6.249,0,0,1-1.122-3.136,11.886,11.886,0,0,1,.454-4.192,14.929,14.929,0,0,1,1.692-3.983,13.47,13.47,0,0,1,2.649-3.153,11.577,11.577,0,0,1,3.456-2.084,11.325,11.325,0,0,1,4.112-.745,7.443,7.443,0,0,1,3.548.765,4.694,4.694,0,0,1,2.07,2.115,7.226,7.226,0,0,1,.69,3.11,14.018,14.018,0,0,1-.534,3.874c-.067.248-.125.439-.17.561s-.1.28-.163.465-.141.408-.234.656H266.412a3.754,3.754,0,0,0,.809,3.492,4.729,4.729,0,0,0,3.54,1.248,14.873,14.873,0,0,0,6.392-1.9M241.467,91.7l-.694,3.02a9.763,9.763,0,0,1,7.263-3.326q3.8,0,4.519,2.248t-.367,6.321l-2.857,10.66h-4.893l2.551-9.519a10.68,10.68,0,0,0,.452-4.09q-.218-1.568-2.357-1.567a4.468,4.468,0,0,0-3.711,1.841,12.2,12.2,0,0,0-2.1,4.357l-2.406,8.978h-4.93l3.225-12.035q1.074-4.015,1.66-6.887Zm-28.846,0-.694,3.02a9.761,9.761,0,0,1,7.262-3.326q3.8,0,4.52,2.248t-.368,6.321l-2.857,10.66H215.59l2.552-9.519a10.7,10.7,0,0,0,.452-4.09q-.218-1.568-2.357-1.567a4.468,4.468,0,0,0-3.711,1.841,12.181,12.181,0,0,0-2.1,4.357l-2.406,8.978H203.09l3.225-12.035q1.076-4.015,1.661-6.887Zm-22.663,9.519a9.166,9.166,0,0,0,.31-3.007,4,4,0,0,0-.924-2.428,3.038,3.038,0,0,0-2.415-.949,4.955,4.955,0,0,0-2.855.93,8.2,8.2,0,0,0-2.25,2.383,10.591,10.591,0,0,0-1.3,2.918,9.316,9.316,0,0,0-.324,3.065,3.934,3.934,0,0,0,.927,2.415,3.137,3.137,0,0,0,2.493.942,4.637,4.637,0,0,0,2.224-.567,6.794,6.794,0,0,0,1.842-1.459,10.015,10.015,0,0,0,1.389-2,10.847,10.847,0,0,0,.889-2.248m5.057.1a13.693,13.693,0,0,1-1.78,4,12.751,12.751,0,0,1-6.487,5.09,12.524,12.524,0,0,1-4.223.707,8.44,8.44,0,0,1-4.815-1.267,5.915,5.915,0,0,1-2.466-3.587,10.274,10.274,0,0,1,.191-5.207,13.548,13.548,0,0,1,2.612-5.135,12.9,12.9,0,0,1,4.392-3.478A12.381,12.381,0,0,1,187.9,91.2a9.219,9.219,0,0,1,3.865.745,6.018,6.018,0,0,1,2.541,2.122,6.882,6.882,0,0,1,1.106,3.218,11.289,11.289,0,0,1-.4,4.033m-29.639,4.148-1.023,4.5a25.406,25.406,0,0,1-6.029.842,16.65,16.65,0,0,1-5.314-.785,9.086,9.086,0,0,1-3.829-2.4,7.527,7.527,0,0,1-1.891-4,13.093,13.093,0,0,1,.438-5.511,19.619,19.619,0,0,1,2.426-5.582,16.4,16.4,0,0,1,3.84-4.172,16,16,0,0,1,4.969-2.568,19.3,19.3,0,0,1,5.831-.86,17.615,17.615,0,0,1,5.866,1.1l-1.585,4.371a9.21,9.21,0,0,0-5.1-1.383,10.553,10.553,0,0,0-4.7,1.071,10.785,10.785,0,0,0-3.722,3,11.905,11.905,0,0,0-2.2,4.421,9.267,9.267,0,0,0-.18,4.665,5.3,5.3,0,0,0,2.192,3.21,7.566,7.566,0,0,0,4.325,1.141,18.077,18.077,0,0,0,5.683-1.064" transform="translate(32.958 18.611)" fill="#f7f7f9"/>
  </g>
</svg>
