<svg xmlns="http://www.w3.org/2000/svg" xmlns:xlink="http://www.w3.org/1999/xlink" width="112" height="112" viewBox="0 0 112 112">
  <defs>
    <clipPath id="clip-path">
      <rect id="Rectangle_1200" data-name="Rectangle 1200" width="70.07" height="67.749" fill="#005eb8"/>
    </clipPath>
  </defs>
  <g id="Communities" transform="translate(-1525 -1655)">
    <g id="Ellipse_162" data-name="Ellipse 162" transform="translate(1525 1655)" fill="#fff" stroke="#005eb8" stroke-width="3">
      <circle cx="56" cy="56" r="56" stroke="none"/>
      <circle cx="56" cy="56" r="54.5" fill="none"/>
    </g>
    <g id="Group_2800" data-name="Group 2800" transform="translate(1545.965 1672.647)">
      <g id="Group_2799" data-name="Group 2799" clip-path="url(#clip-path)">
        <path id="Path_2194" data-name="Path 2194" d="M56.548,40.6c-.035,0-.07,0-.106-.005l-3.462-.355a1.026,1.026,0,1,1,.21-2.042l3.462.355a1.026,1.026,0,0,1-.1,2.048m16.575-3.113A1.026,1.026,0,0,1,72.1,36.461V27.8a2.268,2.268,0,0,1,1.633-2.17l4.541-1.307a.182.182,0,0,0,.1-.075l2.24-3.408a2.224,2.224,0,0,1,2.112-.994l7.6.838a1.026,1.026,0,1,1-.225,2.04l-7.6-.838a.182.182,0,0,0-.172.081l-2.24,3.408a2.236,2.236,0,0,1-1.249.92L74.3,27.6a.206.206,0,0,0-.149.2v8.666a1.026,1.026,0,0,1-1.026,1.026m-36.6-1.819A1.026,1.026,0,0,1,35.5,34.7l-.228-3.725a.183.183,0,0,0-.1-.149l-3-1.594a1.026,1.026,0,0,1,.963-1.813l3,1.594a2.248,2.248,0,0,1,1.182,1.837l.228,3.725a1.026,1.026,0,0,1-.962,1.087l-.064,0m9.611-.006a1.022,1.022,0,0,1-.45-.1L41.74,33.63a2.225,2.225,0,0,1-1.24-1.751l-.2-1.708A2.25,2.25,0,0,1,41.8,27.8l2.289-.778a2.227,2.227,0,0,1,1.9.219l2.1,1.3a.183.183,0,0,0,.23-.029L52.2,24.371a2.254,2.254,0,0,1,.809-.549L55.4,22.814a1.026,1.026,0,1,1,.8,1.891l-2.4,1.013-.029.012a.189.189,0,0,0-.07.046l-3.885,4.144A2.24,2.24,0,0,1,47,30.287l-2.1-1.3a.181.181,0,0,0-.154-.019l-2.288.777a.184.184,0,0,0-.122.194l.2,1.706a.181.181,0,0,0,.1.142l3.95,1.928a1.027,1.027,0,0,1-.451,1.949M59.964,23.023a1.027,1.027,0,0,1-.4-1.972L62.6,19.766a.181.181,0,0,0,.08-.22l-2.319-6.3a.181.181,0,0,0-.149-.117L55.3,12.546a.18.18,0,0,0-.193.122L53.88,16.4a2.235,2.235,0,0,1-3.151,1.289l-1.817-.94A2.243,2.243,0,0,1,47.794,15.4l-.811-2.775a2.226,2.226,0,0,1,.154-1.641l3.324-6.523a1.026,1.026,0,0,1,1.829.932l-3.324,6.524a.183.183,0,0,0-.013.133l.811,2.775a.181.181,0,0,0,.09.11l1.817.94a.178.178,0,0,0,.153.007.176.176,0,0,0,.1-.111l1.222-3.735a2.237,2.237,0,0,1,2.389-1.524l4.917.587a2.227,2.227,0,0,1,1.832,1.444l2.319,6.3a2.224,2.224,0,0,1-1.132,2.789l-.043.02-3.07,1.3a1.023,1.023,0,0,1-.4.081m8.975-6.493a2.313,2.313,0,0,1-.693-.106l-.766-.24a2.324,2.324,0,0,1-1.617-1.978l-.33-3.165a.271.271,0,0,0-.086-.172L62.57,8.223a.276.276,0,0,0-.113-.062L58.67,7.128a2.315,2.315,0,0,1-1.7-2.495l.174-1.6a1.026,1.026,0,1,1,2.041.222l-.174,1.6a.271.271,0,0,0,.2.292L63,6.181a2.336,2.336,0,0,1,.961.531l2.877,2.644a2.323,2.323,0,0,1,.739,1.472l.33,3.165a.272.272,0,0,0,.189.232l.766.24a.273.273,0,0,0,.341-.177l1.006-3.159a2.336,2.336,0,0,1,1.454-1.492l3.221-1.117a.271.271,0,0,0,.181-.223l.265-2.1a1.026,1.026,0,0,1,2.037.257l-.266,2.1a2.311,2.311,0,0,1-1.545,1.906l-3.221,1.118a.273.273,0,0,0-.17.175L71.158,14.91a2.332,2.332,0,0,1-2.219,1.62" transform="translate(-27.304 -1.83)" fill="#005eb8"/>
        <path id="Path_2195" data-name="Path 2195" d="M65.546,61.617a1.026,1.026,0,0,1-.181-2.037,28.86,28.86,0,0,0,4.014-1.028A1.026,1.026,0,0,1,70.03,60.5a30.956,30.956,0,0,1-4.3,1.1,1.035,1.035,0,0,1-.184.016m-10.969-.043a1.04,1.04,0,0,1-.191-.018,30.949,30.949,0,0,1-3.946-1.019,1.026,1.026,0,0,1,.643-1.949,28.89,28.89,0,0,0,3.684.951,1.027,1.027,0,0,1-.189,2.035m37.137-4.125H90.071a1.026,1.026,0,0,1,0-2.053h1.643A1.448,1.448,0,0,0,93.16,53.95V50.36a8.566,8.566,0,0,0-4.864-7.7,1.026,1.026,0,0,1,.882-1.854,10.629,10.629,0,0,1,6.035,9.552v3.59a3.5,3.5,0,0,1-3.5,3.5M89.751,37.28a1.027,1.027,0,0,1-1.012-1.2A29.022,29.022,0,0,0,60.178,2.052,28.788,28.788,0,0,0,37.042,13.57a1.026,1.026,0,1,1-1.637-1.239A31.336,31.336,0,0,1,46.122,3.357a31.053,31.053,0,0,1,45.1,27.691,31.334,31.334,0,0,1-.465,5.383,1.027,1.027,0,0,1-1.01.85M30.6,37.262a1.026,1.026,0,0,1-1.01-.851,31.167,31.167,0,0,1,3.274-20.142,1.026,1.026,0,0,1,1.8.979A29.114,29.114,0,0,0,31.614,36.06a1.027,1.027,0,0,1-1.012,1.2" transform="translate(-25.143 0.001)" fill="#005eb8"/>
        <path id="Path_2196" data-name="Path 2196" d="M398.454,244.206a6.409,6.409,0,0,1-5.607-3.31,1.026,1.026,0,0,1,1.8-.993,4.35,4.35,0,1,0-.015-4.173,1.026,1.026,0,1,1-1.8-.98,6.4,6.4,0,1,1,5.629,9.455" transform="translate(-338.958 -199.733)" fill="#005eb8"/>
        <path id="Path_2197" data-name="Path 2197" d="M324.564,267.469H323a2.92,2.92,0,0,1-1.907-.706,2.92,2.92,0,0,1-1.907.706h-1.563a2.933,2.933,0,0,1-1.9-.7,1.026,1.026,0,0,1,1.331-1.562.869.869,0,0,0,.57.21h1.563a.881.881,0,0,0,.88-.88V252.313a1.026,1.026,0,1,1,2.053,0v12.224a.881.881,0,0,0,.88.88h1.563a.881.881,0,0,0,.88-.88V250.045a1.026,1.026,0,1,1,2.053,0v14.491a2.936,2.936,0,0,1-2.933,2.933M304.1,245.145a1.026,1.026,0,0,1-.8-1.669,10.68,10.68,0,0,1,2.745-2.412,6.4,6.4,0,1,1,8.112,2.585,1.026,1.026,0,0,1-.838-1.874,4.348,4.348,0,1,0-3.671-.057,1.026,1.026,0,1,1-.9,1.846,6.327,6.327,0,0,1-1.371-.9,8.611,8.611,0,0,0-2.48,2.1,1.025,1.025,0,0,1-.8.384" transform="translate(-261.598 -199.732)" fill="#005eb8"/>
        <path id="Path_2198" data-name="Path 2198" d="M322.744,324.494h-1.556a2.936,2.936,0,0,1-2.933-2.933V310.719a1.026,1.026,0,0,1,2.053,0v10.842a.881.881,0,0,0,.88.88h1.556a.881.881,0,0,0,.88-.88V311.246a1.026,1.026,0,0,1,2.053,0v10.316a2.936,2.936,0,0,1-2.933,2.933m8.98-10.288h-1.7a1.026,1.026,0,1,1,0-2.053h1.7a1.448,1.448,0,0,0,1.446-1.446v-3.59a8.567,8.567,0,0,0-4.864-7.7,1.026,1.026,0,0,1,.882-1.854,10.629,10.629,0,0,1,6.034,9.552v3.59a3.5,3.5,0,0,1-3.5,3.5" transform="translate(-274.7 -256.757)" fill="#005eb8"/>
        <path id="Path_2199" data-name="Path 2199" d="M53.42,324.591H51.857a2.936,2.936,0,0,1-2.933-2.933,1.026,1.026,0,1,1,2.053,0,.881.881,0,0,0,.88.88H53.42a.881.881,0,0,0,.88-.88V307.167a1.026,1.026,0,0,1,2.053,0v14.491a2.936,2.936,0,0,1-2.933,2.933M5.013,314.315H3.5a3.5,3.5,0,0,1-3.5-3.5v-3.59a10.631,10.631,0,0,1,6.025-9.547,1.026,1.026,0,0,1,.884,1.853,8.568,8.568,0,0,0-4.856,7.694v3.59A1.448,1.448,0,0,0,3.5,312.262H5.013a1.026,1.026,0,1,1,0,2.053" transform="translate(0 -256.853)" fill="#005eb8"/>
        <path id="Path_2200" data-name="Path 2200" d="M34.965,267.554H33.4a2.936,2.936,0,0,1-2.933-2.933V250.13a1.026,1.026,0,1,1,2.053,0v14.491a.881.881,0,0,0,.88.88h1.563a.881.881,0,0,0,.88-.88h0v-12.06a1.026,1.026,0,0,1,2.053,0v12.06a.881.881,0,0,0,.88.88h1.563a.87.87,0,0,0,.558-.2,1.026,1.026,0,0,1,1.3,1.586,2.939,2.939,0,0,1-1.862.666H38.779a2.92,2.92,0,0,1-1.907-.706,2.92,2.92,0,0,1-1.907.706m18.847-22.39a1.024,1.024,0,0,1-.8-.377,8.614,8.614,0,0,0-2.936-2.3,1.026,1.026,0,1,1,.885-1.852,10.676,10.676,0,0,1,3.64,2.858,1.027,1.027,0,0,1-.794,1.676m-16.941-.875a6.4,6.4,0,1,1,5.61-9.49,1.026,1.026,0,1,1-1.8.991,4.35,4.35,0,1,0,.013,4.169,1.026,1.026,0,0,1,1.8.98,6.4,6.4,0,0,1-5.629,3.35" transform="translate(-26.299 -199.805)" fill="#005eb8"/>
        <path id="Path_2201" data-name="Path 2201" d="M74.782,314.513H73.255a3.5,3.5,0,0,1-3.5-3.5v-3.59a10.506,10.506,0,0,1,5.953-9.513,1.026,1.026,0,1,1,.9,1.846,8.467,8.467,0,0,0-4.8,7.667v3.59a1.448,1.448,0,0,0,1.446,1.446h1.527a1.026,1.026,0,1,1,0,2.053" transform="translate(-60.21 -257.051)" fill="#005eb8"/>
        <path id="Path_2202" data-name="Path 2202" d="M106.627,244.289a6.4,6.4,0,1,1,6.4-6.4,6.41,6.41,0,0,1-6.4,6.4m0-10.752a4.35,4.35,0,1,0,4.35,4.35,4.355,4.355,0,0,0-4.35-4.35" transform="translate(-86.509 -199.804)" fill="#005eb8"/>
        <path id="Path_2203" data-name="Path 2203" d="M110.094,378.676h-1.556a2.92,2.92,0,0,1-1.907-.706,2.92,2.92,0,0,1-1.907.706h-1.563a2.936,2.936,0,0,1-2.933-2.933V361.251a1.026,1.026,0,1,1,2.053,0v14.491a.881.881,0,0,0,.88.88h1.563a.881.881,0,0,0,.88-.88V365.427a1.026,1.026,0,0,1,2.053,0v10.316a.881.881,0,0,0,.88.88h1.556a.881.881,0,0,0,.88-.88V363.529a1.026,1.026,0,1,1,2.053,0v12.213a2.936,2.936,0,0,1-2.933,2.933" transform="translate(-86.512 -310.926)" fill="#005eb8"/>
        <path id="Path_2204" data-name="Path 2204" d="M196.391,314.217h-1.5a1.026,1.026,0,1,1,0-2.053h1.5a1.448,1.448,0,0,0,1.446-1.446v-3.59a8.568,8.568,0,0,0-4.857-7.695,1.027,1.027,0,0,1,.884-1.853,10.631,10.631,0,0,1,6.026,9.548v3.59a3.5,3.5,0,0,1-3.5,3.5m-12.656,0h-1.491a3.5,3.5,0,0,1-3.5-3.5v-3.59a10.625,10.625,0,0,1,6.061-9.564,1.026,1.026,0,0,1,.877,1.856,8.563,8.563,0,0,0-4.885,7.708v3.59a1.448,1.448,0,0,0,1.446,1.446h1.491a1.026,1.026,0,1,1,0,2.053" transform="translate(-154.282 -256.756)" fill="#005eb8"/>
        <path id="Path_2205" data-name="Path 2205" d="M215.619,244.289a6.4,6.4,0,1,1,6.4-6.4,6.41,6.41,0,0,1-6.4,6.4m0-10.752a4.35,4.35,0,1,0,4.35,4.35,4.355,4.355,0,0,0-4.35-4.35" transform="translate(-180.585 -199.804)" fill="#005eb8"/>
        <path id="Path_2206" data-name="Path 2206" d="M219.089,378.676h-1.563a2.921,2.921,0,0,1-1.907-.706,2.92,2.92,0,0,1-1.907.706H212.15a2.936,2.936,0,0,1-2.933-2.933V361.251a1.026,1.026,0,1,1,2.053,0v14.491a.881.881,0,0,0,.88.88h1.563a.881.881,0,0,0,.88-.88V365.427a1.026,1.026,0,0,1,2.053,0v10.316a.881.881,0,0,0,.88.88h1.563a.881.881,0,0,0,.88-.88V361.251a1.026,1.026,0,1,1,2.053,0v14.491a2.936,2.936,0,0,1-2.933,2.933" transform="translate(-180.585 -310.926)" fill="#005eb8"/>
      </g>
    </g>
  </g>
</svg>
