<svg xmlns="http://www.w3.org/2000/svg" width="112" height="112" viewBox="0 0 112 112">
  <g id="Customer_Focus" data-name="Customer Focus" transform="translate(-697 -1655)">
    <g id="Ellipse_164" data-name="Ellipse 164" transform="translate(697 1655)" fill="#fff" stroke="#005eb8" stroke-width="3">
      <circle cx="56" cy="56" r="56" stroke="none"/>
      <circle cx="56" cy="56" r="54.5" fill="none"/>
    </g>
    <g id="Group_2797" data-name="Group 2797" transform="translate(716.492 1674.491)">
      <path id="Path_2190" data-name="Path 2190" d="M35.464,31.215v2.306a1.044,1.044,0,1,0,2.088,0V31.215a11.093,11.093,0,0,0,9.981-9.981h2.3a1.044,1.044,0,0,0,0-2.088h-2.3a11.093,11.093,0,0,0-9.981-9.981v-2.3a1.044,1.044,0,0,0-2.088,0v2.3a11.093,11.093,0,0,0-9.981,9.981h-2.3a1.044,1.044,0,0,0,0,2.088h2.3a11.093,11.093,0,0,0,9.981,9.981Zm0-19.95v2.193a1.044,1.044,0,1,0,2.088,0V11.265a9,9,0,0,1,7.881,7.881H43.24a1.044,1.044,0,1,0,0,2.088h2.193a9,9,0,0,1-7.881,7.881V26.922a1.044,1.044,0,0,0-2.088,0v2.193a9,9,0,0,1-7.881-7.881h2.193a1.044,1.044,0,1,0,0-2.088H27.583a9,9,0,0,1,7.881-7.881Zm1.044,12.372a3.447,3.447,0,1,0-3.447-3.447A3.451,3.451,0,0,0,36.508,23.637Zm0-4.807a1.36,1.36,0,1,1-1.36,1.359,1.361,1.361,0,0,1,1.36-1.359ZM69.171,51.175A11.974,11.974,0,0,0,64.3,47.738a8.553,8.553,0,0,0,2.641-6.175,8.722,8.722,0,0,0-17.443,0,8.551,8.551,0,0,0,2.642,6.175,12.024,12.024,0,0,0-5.83,4.724,13.706,13.706,0,0,0-3.175-1.575,9.3,9.3,0,0,0,.537-12.9,19.367,19.367,0,0,0,8.15-6.239,19.184,19.184,0,1,0-30.621,0,19.376,19.376,0,0,0,8.149,6.238,9.3,9.3,0,0,0,.537,12.9,13.71,13.71,0,0,0-3.173,1.574,12.024,12.024,0,0,0-5.83-4.724,8.551,8.551,0,0,0,2.642-6.175,8.722,8.722,0,0,0-17.443,0,8.552,8.552,0,0,0,2.64,6.175A11.924,11.924,0,0,0,1.009,58.864v6.109a1.044,1.044,0,0,0,1.044,1.044H20.6v4.947a1.044,1.044,0,0,0,1.044,1.044H51.37a1.044,1.044,0,0,0,1.044-1.044V66.017h18.55a1.044,1.044,0,0,0,1.044-1.044V58.864A11.883,11.883,0,0,0,69.171,51.175Zm-17.59-9.612A6.634,6.634,0,1,1,58.217,48.1,6.6,6.6,0,0,1,51.581,41.563ZM19.411,20.19A17.1,17.1,0,1,1,41.893,36.419a9.562,9.562,0,0,0-10.772,0A17.208,17.208,0,0,1,19.411,20.19Zm9.68,23.966a7.416,7.416,0,1,1,7.417,7.314,7.373,7.373,0,0,1-7.417-7.314ZM8.168,41.563A6.634,6.634,0,1,1,14.8,48.1,6.594,6.594,0,0,1,8.168,41.563ZM3.1,63.929V58.864a9.782,9.782,0,0,1,7.8-9.594,8.779,8.779,0,0,0,7.816,0,9.89,9.89,0,0,1,6.351,4.488A13.837,13.837,0,0,0,23.9,54.951a13.668,13.668,0,0,0-3.3,8.889v.089Zm47.229,5.99H22.69V63.84a11.712,11.712,0,0,1,9.368-11.38,9.566,9.566,0,0,0,8.9,0,11.712,11.712,0,0,1,9.369,11.38v6.079Zm19.594-5.99H52.414V63.84a13.669,13.669,0,0,0-3.3-8.889,13.838,13.838,0,0,0-1.157-1.193,9.89,9.89,0,0,1,6.351-4.488,8.778,8.778,0,0,0,7.816,0,9.782,9.782,0,0,1,7.8,9.594v5.065Z" fill="#005eb8"/>
    </g>
  </g>
</svg>
