<svg xmlns="http://www.w3.org/2000/svg" width="112" height="112" viewBox="0 0 112 112">
  <g id="Impact" transform="translate(-1111 -1655)">
    <g id="Ellipse_163" data-name="Ellipse 163" transform="translate(1111 1655)" fill="#fff" stroke="#005eb8" stroke-width="3">
      <circle cx="56" cy="56" r="56" stroke="none"/>
      <circle cx="56" cy="56" r="54.5" fill="none"/>
    </g>
    <g id="Group_2798" data-name="Group 2798" transform="translate(1130.502 1674.502)">
      <path id="Path_2191" data-name="Path 2191" d="M33.6,26.192A12.6,12.6,0,1,0,21,13.6a12.6,12.6,0,0,0,12.6,12.6Zm4.059-3.126a10.275,10.275,0,0,1-8.119,0V17.6a1.718,1.718,0,0,1,1.718-1.718h4.683A1.718,1.718,0,0,1,37.655,17.6ZM31.592,10.447a2,2,0,1,1,2,2A2,2,0,0,1,31.592,10.447Zm2-7.157A10.294,10.294,0,0,1,39.946,21.7V17.6a4,4,0,0,0-3.513-3.957,4.294,4.294,0,1,0-5.673,0A4,4,0,0,0,27.247,17.6V21.7A10.294,10.294,0,0,1,33.6,3.29ZM32.451,29.627V49.094H29.016a1.145,1.145,0,0,0-.953,1.781l4.58,6.871a1.145,1.145,0,0,0,1.905,0l4.58-6.871a1.145,1.145,0,0,0-.953-1.781H34.741V29.627Zm3.585,21.757L33.6,55.049l-2.44-3.664Z" transform="translate(2.902)" fill="#005eb8"/>
      <path id="Path_2192" data-name="Path 2192" d="M23.737,43.459l-.573-2.217C16.174,43.041,12,46.363,12,50.126,12,55.9,22.06,60.432,34.9,60.432S57.8,55.9,57.8,50.126c0-3.763-4.174-7.085-11.165-8.884l-.573,2.217c5.739,1.477,9.447,4.094,9.447,6.667,0,4.724-10.862,8.016-20.612,8.016S14.29,54.849,14.29,50.126C14.29,47.553,18,44.936,23.737,43.459Z" transform="translate(1.596 5.839)" fill="#005eb8"/>
      <path id="Path_2193" data-name="Path 2193" d="M51.619,36.3l-.469,2.242c11.273,2.353,18.556,7.182,18.556,12.3,0,7.449-15.207,13.741-33.208,13.741S3.29,58.292,3.29,50.843c0-5.119,7.283-9.947,18.551-12.3L21.383,36.3C8.808,38.925,1,44.5,1,50.843c0,8.99,15.593,16.031,35.5,16.031S72,59.833,72,50.843C72,44.5,64.188,38.925,51.619,36.3Z" transform="translate(0 5.122)" fill="#005eb8"/>
    </g>
  </g>
</svg>
