<svg xmlns="http://www.w3.org/2000/svg" xmlns:xlink="http://www.w3.org/1999/xlink" width="112" height="112" viewBox="0 0 112 112">
  <defs>
    <clipPath id="clip-path">
      <rect id="Rectangle_1199" data-name="Rectangle 1199" width="75.011" height="77.801" fill="#005eb8"/>
    </clipPath>
  </defs>
  <g id="Innovation" transform="translate(-1525 -1184)">
    <g id="Ellipse_161" data-name="Ellipse 161" transform="translate(1525 1184)" fill="#fff" stroke="#005eb8" stroke-width="3">
      <circle cx="56" cy="56" r="56" stroke="none"/>
      <circle cx="56" cy="56" r="54.5" fill="none"/>
    </g>
    <g id="Group_2795" data-name="Group 2795" transform="translate(1543.494 1201.1)">
      <g id="Group_2794" data-name="Group 2794" clip-path="url(#clip-path)">
        <path id="Path_2183" data-name="Path 2183" d="M189.09,446.454H172.916a1.14,1.14,0,0,1,0-2.279H189.09a1.147,1.147,0,0,0,1.145-1.145v-1.307h-9.35a1.14,1.14,0,1,1,0-2.279H194.01a1.226,1.226,0,0,0,0-2.453h-2.9a1.14,1.14,0,1,1,0-2.279h2.9a3.506,3.506,0,0,1,0,7.011h-1.5v1.307a3.429,3.429,0,0,1-3.425,3.425m-2.943-9.464h-4a1.14,1.14,0,1,1,0-2.279h4a1.14,1.14,0,1,1,0,2.279" transform="translate(-145.674 -368.653)" fill="#005eb8"/>
        <path id="Path_2184" data-name="Path 2184" d="M27.373,77.8a10.6,10.6,0,0,1-9.515-5.994A12.31,12.31,0,0,1,5.547,53.452,7.8,7.8,0,0,1,3.184,39.7,10.527,10.527,0,0,1,.2,34.765a1.14,1.14,0,0,1,2.2-.6A8.267,8.267,0,0,0,5.843,38.9a1.14,1.14,0,0,1-.185,2,5.513,5.513,0,0,0,1.877,10.59,1.14,1.14,0,0,1,.837,1.851,10.034,10.034,0,0,0,9.942,16.071,1.14,1.14,0,0,1,1.306.718,8.3,8.3,0,0,0,7.752,5.388A7.734,7.734,0,0,0,35.1,67.8V7.823A5.536,5.536,0,0,0,28.987,2.31a7.514,7.514,0,0,0-1.169.191,7.663,7.663,0,0,0-3.669,2.15A8.531,8.531,0,0,0,22.071,8.5a1.143,1.143,0,0,1-1.13.884l-.219,0a12.273,12.273,0,0,0-12.26,12.26,12.438,12.438,0,0,0,.068,1.3,1.14,1.14,0,0,1-.773,1.2A8.248,8.248,0,0,0,2.4,29.8a1.14,1.14,0,0,1-2.2-.6A10.519,10.519,0,0,1,6.2,22.3q-.015-.33-.015-.658A14.557,14.557,0,0,1,20.094,7.117a11.147,11.147,0,0,1,2.371-4A9.9,9.9,0,0,1,27.2.307,9.725,9.725,0,0,1,28.744.044a7.815,7.815,0,0,1,8.634,7.779V67.8a10.016,10.016,0,0,1-10,10" transform="translate(0 0)" fill="#005eb8"/>
        <path id="Path_2185" data-name="Path 2185" d="M16.2,111.559A12.309,12.309,0,0,1,9.322,89.045,1.14,1.14,0,0,1,10.6,90.934a10.03,10.03,0,1,0,11.414,16.494,1.14,1.14,0,1,1,1.321,1.857,12.228,12.228,0,0,1-7.129,2.273m5.167-12.583a1.14,1.14,0,0,1-1.043-.679,7.92,7.92,0,0,1,4.031-10.436,1.14,1.14,0,0,1,.923,2.084,5.638,5.638,0,0,0-2.87,7.429,1.14,1.14,0,0,1-1.042,1.6m-17.3-6.691a1.135,1.135,0,0,1-.637-.2A7.792,7.792,0,0,1,7.791,77.838a1.14,1.14,0,1,1,0,2.279A5.513,5.513,0,0,0,4.71,90.2a1.14,1.14,0,0,1-.639,2.084m17.7-23.142a1.141,1.141,0,0,1-1.118-1.369,6.312,6.312,0,0,1,7.453-4.913,1.14,1.14,0,0,1-.459,2.233,4.032,4.032,0,0,0-4.761,3.139,1.14,1.14,0,0,1-1.115.911M8.358,67.6a1.14,1.14,0,0,1-1.052-.7,14.448,14.448,0,0,1-1.123-5.613,1.14,1.14,0,1,1,2.279,0,12.18,12.18,0,0,0,.946,4.732A1.14,1.14,0,0,1,8.358,67.6M25.893,50.059a1.135,1.135,0,0,1-.44-.089,12.182,12.182,0,0,0-4.732-.946,1.14,1.14,0,1,1,0-2.279,14.446,14.446,0,0,1,5.612,1.123,1.14,1.14,0,0,1-.441,2.191" transform="translate(0 -39.642)" fill="#005eb8"/>
        <path id="Path_2186" data-name="Path 2186" d="M156.507,101.323a1.14,1.14,0,0,1,0-2.279,1.226,1.226,0,1,0,0-2.452h-12.1a1.14,1.14,0,1,1,0-2.279H154.6V92.037a2.187,2.187,0,0,1,1.22-1.972,25.779,25.779,0,0,0,5.807-42.293,1.14,1.14,0,1,1,1.523-1.7,28.056,28.056,0,0,1-6.272,46.007v2.248a3.506,3.506,0,0,1-.37,6.992m23.348-14.99a1.134,1.134,0,0,1-.586-.163l-5.922-3.555a1.14,1.14,0,0,1,1.173-1.954l5.922,3.555a1.14,1.14,0,0,1-.588,2.117m-49.144-1.418a1.134,1.134,0,0,1-.345-.054,4.032,4.032,0,0,1-2.621-5.063,1.14,1.14,0,1,1,2.172.69,1.752,1.752,0,0,0,1.139,2.2,1.14,1.14,0,0,1-.345,2.226m51.331-16.334H176.3a1.14,1.14,0,0,1,0-2.279h5.742a1.14,1.14,0,1,1,0,2.279m-8.108-14.2a1.14,1.14,0,0,1-.805-1.946l5.922-5.909a1.14,1.14,0,0,1,1.61,1.614l-5.921,5.909a1.136,1.136,0,0,1-.805.333m-15.653-9.36a1.134,1.134,0,0,1-.587-.164,25.731,25.731,0,0,0-13.287-3.684,1.14,1.14,0,1,1,0-2.279,28.01,28.01,0,0,1,14.464,4.012,1.14,1.14,0,0,1-.589,2.116" transform="translate(-108.17 -32.987)" fill="#005eb8"/>
        <path id="Path_2187" data-name="Path 2187" d="M234.121,138.222a17.885,17.885,0,0,1-2.132-.127,1.14,1.14,0,1,1,.273-2.263,15.654,15.654,0,0,0,3.023.068l1.21-3.4a1.14,1.14,0,0,1,.766-.716,11.552,11.552,0,0,0,2.55-1.057,1.139,1.139,0,0,1,1.048-.036l3.263,1.551a15.488,15.488,0,0,0,1.647-1.647l-1.551-3.263a1.14,1.14,0,0,1,.036-1.048,11.547,11.547,0,0,0,1.057-2.55,1.14,1.14,0,0,1,.716-.766l3.4-1.21c.029-.387.044-.777.044-1.164s-.015-.777-.043-1.164l-3.4-1.21a1.14,1.14,0,0,1-.716-.766,11.557,11.557,0,0,0-1.057-2.55,1.139,1.139,0,0,1-.036-1.048l1.551-3.263a15.486,15.486,0,0,0-1.647-1.647l-3.263,1.551a1.14,1.14,0,0,1-1.048-.036,11.558,11.558,0,0,0-2.55-1.057,1.14,1.14,0,0,1-.766-.716l-1.21-3.4c-.387-.029-.775-.043-1.16-.043h0a15.583,15.583,0,0,0-1.859.111,1.14,1.14,0,1,1-.273-2.263,17.886,17.886,0,0,1,2.132-.127h0a17.885,17.885,0,0,1,2.128.127,1.14,1.14,0,0,1,.938.75l1.26,3.545a13.837,13.837,0,0,1,1.95.808l3.4-1.615a1.14,1.14,0,0,1,1.192.132,17.751,17.751,0,0,1,3.016,3.016,1.139,1.139,0,0,1,.132,1.192l-1.615,3.4a13.834,13.834,0,0,1,.808,1.95l3.544,1.26a1.14,1.14,0,0,1,.75.938,17.864,17.864,0,0,1,0,4.264,1.14,1.14,0,0,1-.75.937l-3.544,1.26a13.82,13.82,0,0,1-.808,1.95l1.615,3.4a1.139,1.139,0,0,1-.132,1.192,17.751,17.751,0,0,1-3.016,3.016,1.139,1.139,0,0,1-1.192.132l-3.4-1.615a13.833,13.833,0,0,1-1.95.808l-1.26,3.545a1.14,1.14,0,0,1-.937.75,17.885,17.885,0,0,1-2.132.127" transform="translate(-195.886 -87.311)" fill="#005eb8"/>
        <path id="Path_2188" data-name="Path 2188" d="M234.143,177.074a9.174,9.174,0,0,1-2.307-.295,1.14,1.14,0,0,1,.574-2.206,6.873,6.873,0,1,0,0-13.3,1.14,1.14,0,1,1-.575-2.205,9.153,9.153,0,1,1,2.313,18.009Z" transform="translate(-195.884 -134.644)" fill="#005eb8"/>
      </g>
    </g>
  </g>
</svg>
