<svg xmlns="http://www.w3.org/2000/svg" width="112" height="112" viewBox="0 0 112 112">
  <g id="Integrity" transform="translate(-283 -1655)">
    <g id="Ellipse_165" data-name="Ellipse 165" transform="translate(283 1655)" fill="#fff" stroke="#005eb8" stroke-width="3">
      <circle cx="56" cy="56" r="56" stroke="none"/>
      <circle cx="56" cy="56" r="54.5" fill="none"/>
    </g>
    <g id="Group_2796" data-name="Group 2796" transform="translate(258.01 1661.861)">
      <path id="Path_2189" data-name="Path 2189" d="M84.443,57.633l.527-2.452c.364-.13.725-.28,1.075-.446L88.153,56.1a1.552,1.552,0,0,0,1.955-.208l2.72-2.72a1.552,1.552,0,0,0,.208-1.955l-1.361-2.108c.166-.35.316-.711.446-1.075l2.452-.527a1.551,1.551,0,0,0,1.235-1.53V42.128a1.555,1.555,0,0,0-1.235-1.53l-2.452-.527c-.13-.364-.28-.725-.446-1.075l1.361-2.108a1.552,1.552,0,0,0-.208-1.955l-1.111-1.111V30.48A1.289,1.289,0,0,1,93,29.192h9.165a3.483,3.483,0,1,0,0-1.7H93a2.991,2.991,0,0,0-2.987,2.987v1.65a1.552,1.552,0,0,0-1.864-.125l-1.374.888V24.588A1.289,1.289,0,0,1,88.067,23.3H91.6a3.483,3.483,0,1,0-.18-1.7H88.067a2.991,2.991,0,0,0-2.987,2.987v8.379c-.037-.013-.072-.028-.109-.042l-.527-2.452a1.551,1.551,0,0,0-1.53-1.235H81.841V21.862a3.483,3.483,0,1,0-1.7,0v7.377H79.068a1.555,1.555,0,0,0-1.53,1.235l-.527,2.452c-.037.013-.072.028-.109.042v-8.38A2.991,2.991,0,0,0,73.914,21.6H70.557a3.483,3.483,0,1,0-.18,1.7h3.536A1.289,1.289,0,0,1,75.2,24.588V32.9l-1.374-.888a1.554,1.554,0,0,0-1.864.123v-1.65A2.991,2.991,0,0,0,68.975,27.5H59.81a3.483,3.483,0,1,0,0,1.7h9.165a1.289,1.289,0,0,1,1.288,1.288v3.342l-1.111,1.111a1.552,1.552,0,0,0-.208,1.955L70.305,39q-.249.526-.446,1.075l-2.452.527a1.551,1.551,0,0,0-1.235,1.53v3.846a1.555,1.555,0,0,0,1.235,1.53l2.452.527c.13.364.28.725.446,1.075l-1.361,2.108a1.552,1.552,0,0,0,.208,1.955l2.72,2.72a1.552,1.552,0,0,0,1.955.207l2.106-1.361c.351.166.711.316,1.075.446l.527,2.452a1.553,1.553,0,0,0,1.53,1.237h3.846A1.555,1.555,0,0,0,84.443,57.633Zm21.1-31.07a1.783,1.783,0,1,1-1.783,1.783A1.786,1.786,0,0,1,105.545,26.563ZM94.87,20.312A1.783,1.783,0,1,1,93.087,22.1a1.786,1.786,0,0,1,1.783-1.783ZM79.208,18.483a1.783,1.783,0,1,1,1.783,1.783A1.786,1.786,0,0,1,79.208,18.483Zm-12.1,5.4A1.783,1.783,0,1,1,68.9,22.1a1.786,1.786,0,0,1-1.783,1.783ZM56.437,30.13a1.783,1.783,0,1,1,1.783-1.783A1.786,1.786,0,0,1,56.437,30.13ZM83.324,54.75,82.8,57.17H79.178l-.52-2.419A1.556,1.556,0,0,0,77.647,53.6a10.185,10.185,0,0,1-1.04-.432,1.55,1.55,0,0,0-1.528.095L73,54.61l-2.565-2.565,1.343-2.078a1.55,1.55,0,0,0,.095-1.528,10.243,10.243,0,0,1-.432-1.04,1.55,1.55,0,0,0-1.147-1.011l-2.419-.52V42.241l2.419-.52a1.55,1.55,0,0,0,1.147-1.011,10.187,10.187,0,0,1,.432-1.04,1.558,1.558,0,0,0-.095-1.528l-1.343-2.078L73,33.5l2.078,1.343a1.551,1.551,0,0,0,1.528.095,10.186,10.186,0,0,1,1.04-.432,1.55,1.55,0,0,0,1.011-1.147l.52-2.419H82.8l.52,2.419A1.553,1.553,0,0,0,84.334,34.5a9.875,9.875,0,0,1,1.04.432,1.55,1.55,0,0,0,1.528-.095L88.982,33.5l2.564,2.565L90.2,38.142a1.55,1.55,0,0,0-.095,1.528,10.242,10.242,0,0,1,.432,1.04,1.55,1.55,0,0,0,1.147,1.011l2.419.52v3.626l-2.419.52A1.55,1.55,0,0,0,90.54,47.4a10.188,10.188,0,0,1-.432,1.04,1.558,1.558,0,0,0,.095,1.528l1.343,2.078L88.981,54.61,86.9,53.266a1.55,1.55,0,0,0-1.528-.095,10.241,10.241,0,0,1-1.04.432A1.557,1.557,0,0,0,83.324,54.75Zm5.8-10.7a8.136,8.136,0,1,0-8.136,8.136A8.146,8.146,0,0,0,89.128,44.053Zm-8.136,6.437a6.437,6.437,0,1,1,6.437-6.437A6.444,6.444,0,0,1,80.991,50.489ZM77.869,73.912H76.391V68.027a4.5,4.5,0,0,0-1.363-3.289L64.571,54.282a3.891,3.891,0,0,0-4.614-.653V40.268a3.924,3.924,0,0,0-7.848,0V61.592a4.551,4.551,0,0,0,1.421,3.346l8.185,7.9v1.069H60.237a.851.851,0,0,0-.85.85v7.665a.851.851,0,0,0,.85.85H77.868a.851.851,0,0,0,.85-.85V74.762a.848.848,0,0,0-.848-.85ZM63.157,71.87l-8.445-8.155a2.815,2.815,0,0,1-.9-2.123V40.269a2.224,2.224,0,1,1,4.448,0V55.521a3.884,3.884,0,0,0,.831,4.242l4.982,4.982a.85.85,0,0,0,1.2-1.2l-4.982-4.982a2.179,2.179,0,0,1,0-3.078,2.185,2.185,0,0,1,3.077,0L73.825,65.939a2.82,2.82,0,0,1,.864,2.088v5.884H63.417V72.482a.851.851,0,0,0-.259-.612Zm13.862,9.706H61.088V75.611H77.019Zm28.928-45.231a3.928,3.928,0,0,0-3.924,3.924V53.63a3.891,3.891,0,0,0-4.614.653L86.954,64.74a4.5,4.5,0,0,0-1.363,3.289v5.884H84.112a.851.851,0,0,0-.85.85v7.663a.851.851,0,0,0,.85.85h17.631a.851.851,0,0,0,.85-.85V74.762a.851.851,0,0,0-.85-.85h-1.479V72.842l8.185-7.9a4.551,4.551,0,0,0,1.421-3.346V40.269A3.927,3.927,0,0,0,105.948,36.346Zm-5.053,45.231H84.963V75.611h15.932Zm7.277-19.983a2.815,2.815,0,0,1-.9,2.123L98.825,71.87a.851.851,0,0,0-.259.612v1.429H87.294V68.027a2.825,2.825,0,0,1,.864-2.088L98.614,55.483a2.176,2.176,0,0,1,3.077,3.078l-4.982,4.982a.85.85,0,0,0,1.2,1.2l4.982-4.982a3.883,3.883,0,0,0,.831-4.242V40.269a2.224,2.224,0,0,1,4.448,0Z" fill="#005eb8"/>
    </g>
  </g>
</svg>
