<svg id="Linkin" xmlns="http://www.w3.org/2000/svg" xmlns:xlink="http://www.w3.org/1999/xlink" width="60.38" height="60.38" viewBox="0 0 60.38 60.38">
  <defs>
    <linearGradient id="linear-gradient" x1="0.548" y1="0.151" x2="0.462" y2="0.846" gradientUnits="objectBoundingBox">
      <stop offset="0" stop-color="#007bb8"/>
      <stop offset="1" stop-color="#0044e9"/>
    </linearGradient>
    <clipPath id="clip-path">
      <path id="Path_2143" data-name="Path 2143" d="M30.19,0A30.19,30.19,0,1,0,60.38,30.191,30.189,30.189,0,0,0,30.19,0Z" fill="url(#linear-gradient)"/>
    </clipPath>
    <clipPath id="clip-path-2">
      <rect id="Rectangle_1076" data-name="Rectangle 1076" width="60.38" height="60.38" fill="none"/>
    </clipPath>
  </defs>
  <g id="Group_2716" data-name="Group 2716" transform="translate(0 0)">
    <g id="Group_2715" data-name="Group 2715" clip-path="url(#clip-path)">
      <rect id="Rectangle_1075" data-name="Rectangle 1075" width="85.391" height="85.391" transform="translate(-30.19 30.19) rotate(-45)" fill="url(#linear-gradient)"/>
    </g>
  </g>
  <g id="Group_2718" data-name="Group 2718" transform="translate(0 0)">
    <g id="Group_2717" data-name="Group 2717" clip-path="url(#clip-path-2)">
      <path id="Path_2144" data-name="Path 2144" d="M14.371,19.995h5.19V36.669h-5.19Zm2.6-8.285a3,3,0,1,1-3.009,3,3.005,3.005,0,0,1,3.009-3" transform="translate(3.724 3.125)" fill="#fff"/>
      <path id="Path_2145" data-name="Path 2145" d="M20.948,18.338h4.971v2.28h.068A5.447,5.447,0,0,1,30.9,17.925c5.247,0,6.215,3.451,6.215,7.942v9.145H31.93V26.905c0-1.936-.037-4.422-2.693-4.422-2.7,0-3.109,2.107-3.109,4.281v8.248h-5.18Z" transform="translate(5.589 4.783)" fill="#fff"/>
    </g>
  </g>
</svg>
