<svg xmlns="http://www.w3.org/2000/svg" width="112" height="112" viewBox="0 0 112 112">
  <g id="Partnership" transform="translate(-1111 -1184)">
    <g id="Ellipse_160" data-name="Ellipse 160" transform="translate(1111 1184)" fill="#fff" stroke="#005eb8" stroke-width="3">
      <circle cx="56" cy="56" r="56" stroke="none"/>
      <circle cx="56" cy="56" r="54.5" fill="none"/>
    </g>
    <g id="Group_2793" data-name="Group 2793" transform="translate(1129.727 1202.723)">
      <path id="Path_2182" data-name="Path 2182" d="M61.215,18.905A8.256,8.256,0,0,0,56.372,4c-7.966-.01-11.226,10.339-4.842,14.905a15.273,15.273,0,0,0-4.2,2.176,23.057,23.057,0,0,0-20.111,0,15.248,15.248,0,0,0-4.2-2.175A8.237,8.237,0,0,0,18.17,4c-7.953-.014-11.235,10.342-4.837,14.909-4.71,1.531-11.66,7.424-8.521,12.917a5.663,5.663,0,0,0,4.9,2.776h6.01a22.62,22.62,0,0,0,9.29,25.636c-3.607,3.86-1.784,10.156,3.8,10.316H45.733a5.659,5.659,0,0,0,4.894-2.775c1.566-2.467.683-5.443-1.1-7.539a22.592,22.592,0,0,0,10.32-18.945c-.056-1.182.28-3.173-1.381-3.121-1.592.233-.907,1.969-1,3.121a20.208,20.208,0,0,1-9.531,17.129,15.11,15.11,0,0,0-5.816-3.581c6.374-4.575,3.09-14.915-4.856-14.9-10.924.414-10.92,16.079,0,16.492a12.986,12.986,0,0,1,11.395,6.81,3.363,3.363,0,0,1-2.933,4.928H28.81a3.365,3.365,0,0,1-2.938-4.924,13.114,13.114,0,0,1,3.664-4.24,1.188,1.188,0,0,0,.234-1.664c-1.052-1.275-2.353.345-3.172,1.074a20.26,20.26,0,0,1-8.105-24.566,1.21,1.21,0,0,0-1.105-1.631H9.712a3.354,3.354,0,0,1-2.935-4.914c3.534-7,13.485-9.008,19.445-4.005a12.978,12.978,0,0,1,3.339,4.006,3.348,3.348,0,0,1-2.925,4.913h-3.3a1.189,1.189,0,0,0,0,2.377h3.3a5.737,5.737,0,0,0,5.015-8.418,15.309,15.309,0,0,0-2.472-3.394,20.718,20.718,0,0,1,16.183,0,15.349,15.349,0,0,0-2.474,3.391,5.745,5.745,0,0,0,5.021,8.426H64.837a5.655,5.655,0,0,0,4.9-2.776c3.143-5.5-3.81-11.39-8.517-12.924ZM31.4,48.192a5.876,5.876,0,0,1,5.868-5.87c7.741.246,7.762,11.46.024,11.736A5.873,5.873,0,0,1,31.4,48.192ZM12.3,12.245c.247-7.756,11.492-7.753,11.737,0C23.791,20,12.546,20,12.3,12.245Zm38.2,0c.247-7.756,11.492-7.753,11.738,0C61.994,20,50.749,20,50.5,12.245ZM67.692,30.61a3.3,3.3,0,0,1-2.856,1.62H47.908a3.3,3.3,0,0,1-2.855-1.62c-1.584-2.725,1.272-5.51,3.143-7.195a12.921,12.921,0,0,1,19.567,3.89,3.32,3.32,0,0,1-.072,3.3Z" transform="translate(0 0)" fill="#005eb8"/>
    </g>
  </g>
</svg>
