<svg xmlns="http://www.w3.org/2000/svg" width="112" height="112" viewBox="0 0 112 112">
  <g id="Quality" transform="translate(-283 -1184)">
    <g id="Ellipse_158" data-name="Ellipse 158" transform="translate(283 1184)" fill="#fff" stroke="#005eb8" stroke-width="3">
      <circle cx="56" cy="56" r="56" stroke="none"/>
      <circle cx="56" cy="56" r="54.5" fill="none"/>
    </g>
    <g id="Group_2791" data-name="Group 2791" transform="translate(273.012 1196.617)">
      <path id="Path_2180" data-name="Path 2180" d="M96.942,53.864c-.614-1.025-3.13-4.073-9.722-.234L75.772,60.3a6.288,6.288,0,0,1-1.445.623,4.773,4.773,0,0,0,.387-1,4.463,4.463,0,0,0-3.038-5.343,1.139,1.139,0,0,0-.149-.038A57.258,57.258,0,0,1,62.4,51.84c-.908-.328-1.765-.638-2.495-.875-2.978-.966-5.658.223-7.887,1.514l-8.407,4.868-.741-1.309a2.832,2.832,0,0,0-3.852-1.068l-3.212,1.818a2.83,2.83,0,0,0-1.068,3.852l9.443,16.685a2.807,2.807,0,0,0,1.706,1.33,2.851,2.851,0,0,0,.762.1,2.8,2.8,0,0,0,1.384-.366l3.212-1.818a2.83,2.83,0,0,0,1.068-3.852L51.4,71.111l1.789-1.033L67.8,73.993a9.4,9.4,0,0,0,2.438.329,8.739,8.739,0,0,0,4.625-1.329L95.64,60.2a4.805,4.805,0,0,0,1.3-6.336ZM50.122,74.589,46.91,76.407a.549.549,0,0,1-.742-.206L36.725,59.516a.552.552,0,0,1,.206-.742l3.212-1.818a.528.528,0,0,1,.263-.069.565.565,0,0,1,.15.02.542.542,0,0,1,.329.254l9.443,16.685a.552.552,0,0,1-.206.742Zm19.517-11.52,1.424.232a8.526,8.526,0,0,0,5.858-1.03L88.369,55.6c3.228-1.88,5.7-2.092,6.615-.566a2.54,2.54,0,0,1-.541,3.22L73.668,71.049a6.5,6.5,0,0,1-5.275.739L53.324,67.751a1.143,1.143,0,0,0-.866.114l-2.181,1.259-5.542-9.792,8.427-4.879c1.884-1.091,3.92-2.006,6.039-1.318.694.225,1.5.515,2.423.85a59.473,59.473,0,0,0,9.414,2.79,2.151,2.151,0,0,1,1.471,2.559A2.062,2.062,0,0,1,70,60.814c-1.678-.346-3.276-.8-4.966-1.284-.8-.23-1.636-.467-2.492-.7a1.141,1.141,0,1,0-.591,2.2c.837.224,1.66.459,2.456.686,1.75.5,3.4.972,5.185,1.336M41.013,60.07a1.147,1.147,0,1,1-1.3-.969,1.147,1.147,0,0,1,1.3.969ZM57.845,25.831a8.46,8.46,0,0,1,.869,1.976,8.465,8.465,0,0,1-.14,2.154c-.036.289-.077.611-.12.972a4.441,4.441,0,0,0,2.68,4.642c.335.143.633.269.9.382l.142.06-4.242,9.11a1.141,1.141,0,0,0,1.231,1.606l4.662-.815,2.378,4.092a1.141,1.141,0,0,0,2.021-.092l4.211-9.044-.083-.039a5.647,5.647,0,0,1,1.5-.328,8.454,8.454,0,0,1,2.1.512l.366.113,3.039,7.055a1.141,1.141,0,0,0,2.018.15l2.5-4.021,4.636.95A1.141,1.141,0,0,0,89.779,43.7l-3.454-8.019.242-.1a4.441,4.441,0,0,0,2.68-4.642c-.043-.361-.083-.683-.12-.972a8.454,8.454,0,0,1-.14-2.154,8.463,8.463,0,0,1,.869-1.976c.133-.259.281-.547.445-.872a4.44,4.44,0,0,0-.931-5.278q-.357-.335-.716-.668a8.459,8.459,0,0,1-1.492-1.56,8.452,8.452,0,0,1-.6-2.072c-.065-.284-.137-.6-.22-.954a4.44,4.44,0,0,0-4.106-3.445c-.363-.02-.687-.036-.978-.051a8.455,8.455,0,0,1-2.146-.236,8.453,8.453,0,0,1-1.795-1.2c-.232-.176-.49-.371-.782-.59a4.44,4.44,0,0,0-5.36,0c-.291.218-.55.414-.782.59a8.457,8.457,0,0,1-1.795,1.2,8.454,8.454,0,0,1-2.146.236c-.291.015-.615.031-.978.051a4.441,4.441,0,0,0-4.106,3.445c-.083.354-.155.67-.22.954a8.452,8.452,0,0,1-.6,2.072,8.464,8.464,0,0,1-1.492,1.56q-.359.333-.717.668a4.44,4.44,0,0,0-.931,5.278q.221.437.444.872Zm9.236,21.142L65.4,44.084a1.141,1.141,0,0,0-1.183-.551l-3.292.575,3.254-6.989a13.734,13.734,0,0,1,1.066,1.533c.158.245.334.517.533.822A4.437,4.437,0,0,0,69.5,41.5c.042,0,.084,0,.126,0Zm16.462-5.052a1.141,1.141,0,0,0-1.2.516l-1.762,2.839L78.93,41.439a4.442,4.442,0,0,0,2.99-1.965q.268-.41.533-.822a8.458,8.458,0,0,1,1.277-1.74,2.711,2.711,0,0,1,.5-.32l2.584,6ZM59.893,21.344c.262-.246.5-.463.707-.659,2.026-1.879,2.155-2.1,2.77-4.8.064-.28.135-.592.217-.941A2.148,2.148,0,0,1,65.6,13.26c.359-.02.678-.036.965-.05,2.76-.137,3-.226,5.205-1.895.229-.173.484-.367.771-.582a2.148,2.148,0,0,1,2.624,0q.387.29.771.582c2.2,1.669,2.446,1.757,5.205,1.895.287.014.606.03.965.05a2.148,2.148,0,0,1,2.01,1.687c.082.35.153.662.217.942.615,2.694.744,2.918,2.77,4.8q.354.328.707.659a2.148,2.148,0,0,1,.456,2.585c-.162.321-.308.605-.439.861-1.261,2.459-1.306,2.714-.962,5.455.036.285.075.6.118.959a2.147,2.147,0,0,1-1.312,2.273c-.33.141-.625.266-.89.377-2.546,1.073-2.744,1.239-4.243,3.561q-.262.406-.526.81a2.148,2.148,0,0,1-2.466.9c-.344-.1-.649-.2-.924-.283-2.64-.815-2.9-.815-5.54,0-.274.085-.58.179-.924.283a2.148,2.148,0,0,1-2.466-.9q-.264-.4-.526-.811c-1.5-2.321-1.7-2.488-4.243-3.56-.265-.112-.559-.236-.889-.377A2.148,2.148,0,0,1,60.72,31.2c.043-.357.082-.674.118-.959.344-2.742.3-3-.962-5.455-.131-.255-.277-.54-.439-.86a2.147,2.147,0,0,1,.456-2.584ZM73.85,35.218A10.464,10.464,0,1,0,63.386,24.754,10.476,10.476,0,0,0,73.85,35.218Zm0-18.646a8.182,8.182,0,1,1-8.182,8.182A8.191,8.191,0,0,1,73.85,16.572ZM70.945,28.8l-2.937-2.937a1.141,1.141,0,0,1,1.614-1.614l2.168,2.168,6.328-5.743a1.141,1.141,0,1,1,1.534,1.69l-7.133,6.474a1.141,1.141,0,0,1-1.574-.038Z" fill="#005eb8"/>
    </g>
  </g>
</svg>
