<svg xmlns="http://www.w3.org/2000/svg" width="112" height="112" viewBox="0 0 112 112">
  <g id="Reliability" transform="translate(-697 -1184)">
    <g id="Ellipse_159" data-name="Ellipse 159" transform="translate(697 1184)" fill="#fff" stroke="#005eb8" stroke-width="3">
      <circle cx="56" cy="56" r="56" stroke="none"/>
      <circle cx="56" cy="56" r="54.5" fill="none"/>
    </g>
    <g id="Group_2792" data-name="Group 2792" transform="translate(708.832 1195.837)">
      <path id="Path_2181" data-name="Path 2181" d="M23.089,36.77a1.383,1.383,0,1,1-1.318-1.446,1.383,1.383,0,0,1,1.318,1.446Zm55.2,23.015-4.151,1.609A3.2,3.2,0,0,1,70,59.567l-.362-.934-3.378,1.41a4.333,4.333,0,0,1-3.1,4.908l-.14.038a4.344,4.344,0,0,1-4.7,5.684,4.361,4.361,0,0,1-5.265,4.523,4.32,4.32,0,0,1-.534,2.217,4.411,4.411,0,0,1-2.661,2.106,4.352,4.352,0,0,1-1.176.163,4.2,4.2,0,0,1-2.1-.562l-1.144-.657A4.423,4.423,0,0,1,43.1,80.138a4.492,4.492,0,0,1-1.3.195,4.452,4.452,0,0,1-4.144-2.854,4.44,4.44,0,0,1-5.783-2.211,4.448,4.448,0,0,1-6.524-4.587,4.455,4.455,0,0,1-4.022-6.55l1.117-2.089a9.138,9.138,0,0,1-.491-1.877c-.214-1.151-.38-1.863-.889-2.061-.2-.078-.675-.275-2.416-1.051L18.2,58.069a3.2,3.2,0,0,1-4.22,1.633L9.905,57.9a3.2,3.2,0,0,1-1.633-4.22L17.62,32.531a3.206,3.206,0,0,1,4.22-1.633l4.072,1.8a3.206,3.206,0,0,1,1.633,4.22l-.7,1.586,2.65,1.223c.028.013.056.027.083.043a4.114,4.114,0,0,0,2.455.469,18.607,18.607,0,0,1-4.366-12.106v-12.4a1.167,1.167,0,0,1,.707-1.072L43.708,8.089a1.167,1.167,0,0,1,.919,0L59.961,14.66a1.167,1.167,0,0,1,.707,1.072v12.4a18.6,18.6,0,0,1-4.6,12.378c1.666.637,2.823.933,3.9.373l2.311-1.237L61.644,38a3.2,3.2,0,0,1,1.827-4.14l4.151-1.609a3.2,3.2,0,0,1,4.14,1.827L80.12,55.644A3.2,3.2,0,0,1,78.293,59.784ZM30,28.131a16.263,16.263,0,0,0,4.724,11.593c.667-.155,1.373-.313,2.118-.421a14.56,14.56,0,0,1-5.092-11.172V18.425a1.167,1.167,0,0,1,.707-1.072l11.25-4.821a1.167,1.167,0,0,1,.919,0l11.25,4.821a1.167,1.167,0,0,1,.707,1.072v9.706A14.594,14.594,0,0,1,51.78,39.048a15.962,15.962,0,0,1,1.946.56,16.272,16.272,0,0,0,4.609-11.476V16.5L44.168,10.431,30,16.5ZM48.03,38.908a12.166,12.166,0,0,0,6.221-10.777V19.195L44.168,14.873,34.084,19.195v8.937A12.584,12.584,0,0,0,44,40.394,11.308,11.308,0,0,1,48.03,38.908ZM25.411,35.974a.872.872,0,0,0-.442-1.143l-4.072-1.8a.868.868,0,0,0-1.143.442L10.406,54.626a.867.867,0,0,0,.442,1.143l4.072,1.8a.872.872,0,0,0,1.143-.442ZM26.555,67.9l2.667-4.615a2.12,2.12,0,0,0-3.813-1.845l-2.027,3.789a2.13,2.13,0,0,0,.87,2.87A2.129,2.129,0,0,0,26.555,67.9Zm5.071,4.444,2.946-5.7a2.117,2.117,0,0,0-3.392-2.078l-3.3,5.8a2.12,2.12,0,1,0,3.746,1.988Zm5.963,2.326L40.2,69.651a2.117,2.117,0,0,0-3.564-1.923l-2.846,5.511a2.118,2.118,0,0,0,3.8,1.433Zm6.092,2.208,1.943-3.634a2.139,2.139,0,0,0-.169-2.264,2.077,2.077,0,0,0-.7-.605,2.148,2.148,0,0,0-2.49.364L39.7,75.663a2.121,2.121,0,0,0,3.977,1.217Zm5.994-3.354c-.063-.035-1.493-.867-1.493-.867a4.414,4.414,0,0,1-.5,1.687l-1.11,2.076,1.173.674a1.919,1.919,0,0,0,1.486.175,2.036,2.036,0,0,0,.443-3.746ZM63.786,59.882a2.094,2.094,0,0,0-.851-.908L51.9,52.682c-1.875-1.069-4.217-.12-6.928.977A18.192,18.192,0,0,1,38.352,55.4c-2.256,0-4.541-.88-6.651-3.595a1.547,1.547,0,0,1,.442-2.287,37.717,37.717,0,0,0,7.815-5.895c.553-.559,1.094-1.057,1.623-1.5-2.387-1.047-4.428-.57-6.569-.069-2.116.5-4.3,1.008-6.536-.226L25.9,40.638,19.589,54.919c1.563.7,2.129.937,2.317,1.01,1.555.6,2,2.089,2.249,3.338a4.452,4.452,0,0,1,7.536,2.579,4.449,4.449,0,0,1,5.085,3.143A4.457,4.457,0,0,1,42.4,68a4.444,4.444,0,0,1,3.449.318,4.392,4.392,0,0,1,1.34,1.1l5.811,3.289a1.988,1.988,0,0,0,1.526.169,2.017,2.017,0,0,0,1.22-.97,2.047,2.047,0,0,0-.808-2.756l-8.156-4.612A1.167,1.167,0,1,1,47.932,62.5l9.99,5.622a2.025,2.025,0,1,0,1.941-3.555h0c-2.344-1.313-5-2.8-7.6-4.291a1.167,1.167,0,1,1,1.159-2.025c2.6,1.486,5.248,2.972,7.589,4.283a1.971,1.971,0,0,0,1.516.17,2.022,2.022,0,0,0,1.226-.973,1.99,1.99,0,0,0,.038-1.852Zm5.01-3.426L63.129,41.837l-2.072,1.109c-2.248,1.17-4.449.294-6.577-.553-3.534-1.407-7.188-2.861-12.863,2.874a39.122,39.122,0,0,1-7.5,5.791c3.022,3.251,6.257,1.941,9.969.439,3-1.215,6.1-2.47,8.959-.842l11.04,6.292a4.433,4.433,0,0,1,1.184.979Zm9.148.031L69.586,34.925a.868.868,0,0,0-1.121-.495L64.314,36.04a.867.867,0,0,0-.495,1.121l8.359,21.562a.868.868,0,0,0,1.121.495l4.151-1.609a.868.868,0,0,0,.495-1.121ZM67.485,36.68a1.383,1.383,0,1,0,1.383,1.383A1.386,1.386,0,0,0,67.485,36.68ZM44.663,33.393a3.039,3.039,0,0,1-4.3,0l-4.149-4.149a3.039,3.039,0,0,1,4.3-4.3l1.992,1.992,5.314-5.367a3.011,3.011,0,0,1,2.143-.9h.012a3.036,3.036,0,0,1,2.156,5.174q-1.387,1.4-2.769,2.8C47.825,30.208,46.237,31.819,44.663,33.393Zm-1.65-1.65c1.568-1.568,3.153-3.176,4.686-4.73q1.386-1.405,2.773-2.808a.7.7,0,0,0,0-.994.724.724,0,0,0-.5-.2.694.694,0,0,0-.493.207l-6.139,6.2a1.167,1.167,0,0,1-.826.346h0a1.167,1.167,0,0,1-.825-.342L38.864,26.6a.706.706,0,0,0-1,1l4.149,4.149a.706.706,0,0,0,1,0Z" transform="translate(0 0)" fill="#005eb8"/>
    </g>
  </g>
</svg>
