<svg id="tictoc" xmlns="http://www.w3.org/2000/svg" xmlns:xlink="http://www.w3.org/1999/xlink" width="60.38" height="60.38" viewBox="0 0 60.38 60.38">
  <defs>
    <linearGradient id="linear-gradient" x1="0.489" y1="0.166" x2="0.496" y2="0.846" gradientUnits="objectBoundingBox">
      <stop offset="0" stop-color="#23004a"/>
      <stop offset="0.558" stop-color="#010003"/>
      <stop offset="1"/>
    </linearGradient>
    <clipPath id="clip-path">
      <path id="Path_2148" data-name="Path 2148" d="M30.19,0A30.19,30.19,0,1,0,60.38,30.191,30.189,30.189,0,0,0,30.19,0Z" fill="url(#linear-gradient)"/>
    </clipPath>
    <clipPath id="clip-path-2">
      <rect id="Rectangle_1080" data-name="Rectangle 1080" width="60.38" height="60.38" fill="none"/>
    </clipPath>
  </defs>
  <g id="Group_2726" data-name="Group 2726" transform="translate(0 0)">
    <g id="Group_2725" data-name="Group 2725" clip-path="url(#clip-path)">
      <rect id="Rectangle_1079" data-name="Rectangle 1079" width="85.391" height="85.391" transform="translate(-30.19 30.19) rotate(-45)" fill="url(#linear-gradient)"/>
    </g>
  </g>
  <g id="Group_2728" data-name="Group 2728" transform="translate(0 0)">
    <g id="Group_2727" data-name="Group 2727" clip-path="url(#clip-path-2)">
      <path id="Path_2149" data-name="Path 2149" d="M32.55,22.4a13.339,13.339,0,0,0,7.782,2.489V19.312a7.867,7.867,0,0,1-1.634-.171v4.393a13.338,13.338,0,0,1-7.781-2.489V32.434A10.324,10.324,0,0,1,14.85,41a10.323,10.323,0,0,0,17.7-7.212V22.4Zm2.017-5.63A7.779,7.779,0,0,1,32.55,12.22V11.5H31a7.817,7.817,0,0,0,3.565,5.272M18.455,36.633a4.721,4.721,0,0,1,5.19-7.354V23.573a10.5,10.5,0,0,0-1.633-.094v4.441a4.72,4.72,0,0,0-3.557,8.712" transform="translate(3.962 3.069)" fill="#ff1753" fill-rule="evenodd"/>
      <path id="Path_2150" data-name="Path 2150" d="M31.536,21.046a13.34,13.34,0,0,0,7.781,2.488V19.142a7.811,7.811,0,0,1-4.131-2.368A7.81,7.81,0,0,1,31.622,11.5H27.555v22.29a4.723,4.723,0,0,1-8.48,2.841,4.721,4.721,0,0,1,3.557-8.713v-4.44A10.313,10.313,0,0,0,15.471,41a10.322,10.322,0,0,0,16.066-8.57Z" transform="translate(3.343 3.069)" fill="#fff" fill-rule="evenodd"/>
      <path id="Path_2151" data-name="Path 2151" d="M39.661,19.427V18.24a7.792,7.792,0,0,1-4.131-1.179,7.807,7.807,0,0,0,4.131,2.366m-7.7-7.639c-.037-.212-.066-.426-.085-.64V10.43H26.263V32.72a4.724,4.724,0,0,1-6.845,4.2,4.722,4.722,0,0,0,8.48-2.84V11.788ZM22.976,23.766V22.5a10.316,10.316,0,0,0-7.161,18.789,10.314,10.314,0,0,1,7.161-17.525" transform="translate(2.999 2.783)" fill="#00c9d0" fill-rule="evenodd"/>
    </g>
  </g>
</svg>
