<svg id="whatsapp" xmlns="http://www.w3.org/2000/svg" xmlns:xlink="http://www.w3.org/1999/xlink" width="60.38" height="60.38" viewBox="0 0 60.38 60.38">
  <defs>
    <linearGradient id="linear-gradient" x1="0.446" y1="0.147" x2="0.553" y2="0.856" gradientUnits="objectBoundingBox">
      <stop offset="0" stop-color="#00fb73"/>
      <stop offset="1" stop-color="#00b25b"/>
    </linearGradient>
    <clipPath id="clip-path">
      <path id="Path_2140" data-name="Path 2140" d="M30.19,0A30.19,30.19,0,1,0,60.38,30.191,30.189,30.189,0,0,0,30.19,0Z" fill="url(#linear-gradient)"/>
    </clipPath>
    <clipPath id="clip-path-2">
      <rect id="Rectangle_1074" data-name="Rectangle 1074" width="60.38" height="60.38" fill="none"/>
    </clipPath>
  </defs>
  <g id="Group_2711" data-name="Group 2711" transform="translate(0 0)">
    <g id="Group_2710" data-name="Group 2710" clip-path="url(#clip-path)">
      <rect id="Rectangle_1073" data-name="Rectangle 1073" width="85.391" height="85.391" transform="translate(-30.19 30.19) rotate(-45)" fill="url(#linear-gradient)"/>
    </g>
  </g>
  <g id="Group_2713" data-name="Group 2713" transform="translate(0 0)">
    <g id="Group_2712" data-name="Group 2712" clip-path="url(#clip-path-2)">
      <path id="Path_2141" data-name="Path 2141" d="M11.56,42.7l2.235-8.337a15.427,15.427,0,1,1,6.145,6.092Zm8.8-5.369.528.314A12.523,12.523,0,1,0,16.6,33.4l.324.532-1.248,4.654Z" transform="translate(3.084 3.077)" fill="#fff"/>
      <path id="Path_2142" data-name="Path 2142" d="M31.245,27.3a2.588,2.588,0,0,0-2.2-.5c-.573.234-.939,1.13-1.31,1.589a.548.548,0,0,1-.709.153,9.98,9.98,0,0,1-4.982-4.268.61.61,0,0,1,.077-.835,3.361,3.361,0,0,0,.9-1.47,3.214,3.214,0,0,0-.4-1.739A4.128,4.128,0,0,0,21.332,18.3a1.763,1.763,0,0,0-1.912.284,3.88,3.88,0,0,0-1.344,3.075,4.41,4.41,0,0,0,.12.974,8.05,8.05,0,0,0,.936,2.156,17.253,17.253,0,0,0,.977,1.486,15.092,15.092,0,0,0,4.236,3.933,12.848,12.848,0,0,0,2.641,1.257,5.867,5.867,0,0,0,3.076.485,3.719,3.719,0,0,0,2.788-2.074,1.8,1.8,0,0,0,.129-1.059c-.158-.728-1.145-1.163-1.736-1.515" transform="translate(4.823 4.837)" fill="#fff" fill-rule="evenodd"/>
    </g>
  </g>
</svg>
